/* XPM */
static char *_ecca215fad4416fa6764f2cfc255bd2WtO4JB6cUBX25NnJ[] = {
/* columns rows colors chars-per-pixel */
"70 70 212 2 ",
"   c #AE794F",
".  c #B37D4E",
"X  c #B27F52",
"o  c #B68255",
"O  c #BB8455",
"+  c #BC895B",
"@  c #B7845A",
"#  c #BF926E",
"$  c #BF9371",
"%  c #BA977B",
"&  c #BE997D",
"*  c #B98C65",
"=  c #BFA17B",
"-  c #C18A5B",
";  c #C59264",
":  c #C99265",
">  c #C5956E",
",  c #C9956D",
"<  c #C5986F",
"1  c #CB996F",
"2  c #D39E6F",
"3  c #C59673",
"4  c #C89673",
"5  c #C69875",
"6  c #CA9A74",
"7  c #C49678",
"8  c #C99779",
"9  c #C59A7A",
"0  c #CB9D79",
"q  c #D29E74",
"w  c #D7A26F",
"e  c #CDA176",
"r  c #C7A37D",
"t  c #CEA27B",
"y  c #D4A275",
"u  c #D8A374",
"i  c #D3A47A",
"p  c #D9A57A",
"a  c #D5A97D",
"s  c #DAA97D",
"d  c #B79B85",
"f  c #BD9C82",
"g  c #B89F8B",
"h  c #BDA187",
"j  c #BEA28B",
"k  c #ABABAA",
"l  c #B0AFAD",
"z  c #BCBCBB",
"x  c gray70",
"c  c #C29E81",
"v  c #C5A385",
"b  c #CCA583",
"n  c #CDA884",
"m  c #C4A58A",
"M  c #CDA789",
"N  c #C6AB8D",
"B  c #CCA98B",
"V  c #D2A682",
"C  c #D4A984",
"Z  c #DAAC84",
"A  c #D3AC8B",
"S  c #D9AE89",
"D  c #DDB38C",
"F  c #C5A792",
"G  c #C5AB94",
"H  c #CCAD92",
"J  c #CAAE98",
"K  c #D2AE92",
"L  c #CDB29C",
"P  c #C5B59E",
"I  c #D1B194",
"U  c #DBB694",
"Y  c #D2B49B",
"T  c #DDBB9E",
"R  c #D0B89E",
"E  c #E4B58C",
"W  c #E1B691",
"Q  c #E4BA95",
"!  c #EABE96",
"~  c #E5BE9B",
"^  c #E9BE99",
"/  c #CBB7A8",
"(  c #D1B7A2",
")  c #D4BAA4",
"_  c #DABDA4",
"`  c #D6BFAA",
"'  c #E6C19D",
"]  c #E9C19D",
"[  c #EDC097",
"{  c #DEC4A7",
"}  c #DDC3AB",
"|  c #D5C2B3",
" . c #D9C5B4",
".. c #DECAB4",
"X. c #DDCABB",
"o. c #E5C2A1",
"O. c #EBC4A1",
"+. c #E3C5AC",
"@. c #E7C8AB",
"#. c #F0C4A2",
"$. c #E4C6B4",
"%. c #E3CBB6",
"&. c #E2CCBB",
"*. c #EBCEB9",
"=. c #E6D2BB",
"-. c #EBD2BB",
";. c #F1D6BB",
":. c #C4C4C4",
">. c #CAC9C7",
",. c #CDCDCD",
"<. c #C9C7C8",
"1. c #D4D1CA",
"2. c #CFCFD1",
"3. c #D4D4D5",
"4. c #D7DBDB",
"5. c #DCDCDC",
"6. c #E3D3C4",
"7. c #EBD5C2",
"8. c #EDDACB",
"9. c #EAD8C4",
"0. c #F5DAC5",
"q. c #F3DDCC",
"w. c #F4DBC8",
"e. c #EBDDD3",
"r. c #E1DEDE",
"t. c #E5DBD3",
"y. c #F4DED0",
"u. c #DEE0DD",
"i. c #EEE3CF",
"p. c #FCE3CF",
"a. c #EEE1D6",
"s. c #E4E2DD",
"d. c #EFE5DC",
"f. c #F4E3D3",
"g. c #FAE5D3",
"h. c #FEE9D4",
"j. c #F3E5DA",
"k. c #F5EADE",
"l. c #FEECDC",
"z. c #F8E6D8",
"x. c #DEDEE1",
"c. c #DEE2E5",
"v. c #E4E4E4",
"b. c #EAE6E4",
"n. c #E5E8E7",
"m. c #EDEAE4",
"M. c #E5EAED",
"N. c #ECECEC",
"B. c #E7E6EB",
"V. c #F4EBE5",
"C. c #FBEEE2",
"Z. c #F3EFEC",
"A. c #F9E6E2",
"S. c #EFF1EE",
"D. c #FFF2E4",
"F. c #FFFAE6",
"G. c #F4F2EE",
"H. c #FDF4EC",
"J. c #FFF9ED",
"K. c #E3ECF3",
"L. c #ECEEF1",
"P. c #EEF1F3",
"I. c #EEF4FA",
"U. c #F4F4F4",
"Y. c #FBF6F3",
"T. c #F6F8F4",
"R. c #FDFBF5",
"E. c #F5F6F9",
"W. c #FBF7FA",
"Q. c #F6FBFD",
"!. c #F7FDFF",
"~. c #F6F9FC",
"^. c #F8F8F8",
"/. c #F9F9F9",
"(. c #FBFAF8",
"). c gray98",
"_. c #FBFBFB",
"`. c #F8FAFA",
"'. c #FAFCFB",
"]. c #FFFCF9",
"[. c #FCFCFA",
"{. c #FDFDFB",
"}. c #FEFDFB",
"|. c #FFFDFA",
" X c #FFFFFB",
".X c #FFFEFA",
"XX c #FEFEF8",
"oX c #FAFBFD",
"OX c #FAFAFD",
"+X c #FDFBFC",
"@X c #FBFDFC",
"#X c #F9FDFF",
"$X c #F9FFFF",
"%X c #FBFFFF",
"&X c #FBFEFF",
"*X c #FAFCFE",
"=X c gray99",
"-X c #FDFDFD",
";X c #FEFCFD",
":X c #FFFFFD",
">X c #FFFEFC",
",X c #FCFDFF",
"<X c #FDFDFF",
"1X c #FCFFFF",
"2X c #FDFFFE",
"3X c #FEFEFE",
"4X c #FFFEFF",
"5X c #FEFFFF",
"6X c white",
"7X c #FEFEFF",
"8X c #FDFEFD",
"9X c #FDFDFD",
/* pixels */
"4XL.E.4XoX4X4X4X4X4X4X4XN.4X4X4X4X(.4XoX4X4X4X4XT.U.}.}.}.}.}.V.4X4X4X4X4X(.^.>.4X4X3.M.L.4X*X*X4XN.N.N.4XT.4X4X(.N.T.(.4X(.4X4X(.4X4X4X4X4X",
"oXE.4X4X4X4X}.}.4X4X4X4XN.4X4X4X4X4X4X4X4X4X(.4X4X+X4X}.4X}.}.T.4X4XoX4X(.(.r.z 5.z <.4X(.oX4X*X(.(.N.v.(.(.4X4X4X(.(.4X4X4XE.4X(.4X4X4X4X4X",
"x.L.E.4X4X4X4X4X4X}.4X4XT.4X4X4X4X(.4XT.4X4X4XoX4X4X4XoX4XoX4X4XE.Q.*X4XoXU.U.v.l k >.T.4X[.T.4X4XU.z N.4XT.P.T.4XN.U.U.4X4X4XT.T.4X*X4X4X4X",
"B.4X4X4X4X^.^.}.4X(.4X4X(.4X4X4X4X4X}.}.(.4X4X4X4X4X4X*X*X!.*X4XT.4X4X4X4X4.4X(.(.z U.4X4Xv.4X4XU.,.4Xk T.4X4X4XT.U.(.(.U.U.(.4XT.4X(.4X4X4X",
"v.4X+X+X4X4X4X4X4X}.4X*XoX4XoX(.}.}.4X4XT.(.4X4X*X4X4X*X*X*X*X*X}.}.^.}.4X5.4XU.E.:.(.4X[.4X4X3.N.U.4XT.(.N.(.N.4X(.4XT.4XU.4X(.T.4X*X4X4X4X",
"U.4X4X4X4X4X4X^.4X4X4X4X*X4XoX4X4X^.U.U.4X(.4X4X4X4X4X4X!.*X*X*X}.(.(.}.4X*XoX4XL.M.4X4XU.s.3.4X4X4XT.4XT.(.4X(.T.4X(.4Xv.U.N.4XT.4X*X4X4X4X",
"}.4X4X}.(.4X4X^.4X4X4X4X4X4X(.4X4XE.v.*X}.4X4X}.}.}.}.}.U.}.4X}.}.XX}.'.E.*XE.*XP.c.*Xv.U.N.U.}.4XT.4X4X4X4X(.4X4X4X4X4XU.U.N.N.T.4X4X4X4X4X",
"T.N.U.G.N.}.4XT.4X4X*X4X(.4XU.*X*X!.I.4X4X^.}.}.XXR.R.R.D.R.R.J.(.}.4X'.4XQ.*X*XQ.M.L.E.4.4X4X4X4X4XU.4X4X(.*X4X4X4X4X4X4X*X4X*X(.4X4X4X4X4X",
"(.U.s.m.}.4X4X(.4X4X4X4X4X'.(.4X*X!.Q.4X}.XXXXR.J.l.&./ ..h.F.F.XX}.v.(.Q.4X*X*X*X*X*X4X}.}.}.}.4XT.(.4X4X(.4X(.T.4X4X4X4X4X4X4XT.4X4X4X4X4X",
"T.T.(.U.(.4XT.4X4X4X4X4X'.'.*X*XQ.*X*X}.}.R.J.J.7.L h N B v U ;.F.R.H.R.}.}.}.(.^.'.4X4X4X4X}.4X4X(.(.4X4X(.T.N.T.T.(.4X(.4X4X4X4X4X4X4X4X4X",
"}.U.(.4X4X(.N.4X4X4X4X4X'.'.}.4X4XU.^.(.R.J.g.( B B b b V t a n N ) &.9.l.C.R.R.}.}.4X4X*X*X*X*X4X(.(.4X4X4X4X4X4X4X4X4X4X4X4X4X4X4X4X4X4X4X",
"N.4X4X(.4X4X4X(.4X4X(.}.}.}.}.}.(.XXXXJ.l.` j B b b a i i a i e b n B v T %.l.J.J.R.}.4X4X*X*X!.4X4X4X4X4X4X4X4X4X4X4X4X4X*X4X4X4X4X4X4X(.4X",
"N.4X4X4X4XoX4X4X'.4X^.^.(.(.}.XXH.R.J.8.G G B r t i i i y 0 y i u u y e V b K _ w.l.J.}.[.E.Q.*X*X4X4X4X4X4X4X4X4X4X4X4X4X(.(.4X4X(.4X4X4X4X",
"4X^.4X4X4XE.N.(.S.4X}.(.^.XXXXJ.J.g.} _ +.o.A Z i a i y i C a y p u u p i i 0 C b H ` 8.H.XX}.}.4X4X4X4X4X4X4X4X4X(.(.4X4X(.(.4X4XN.T.4X4X4X",
"*X*X4XE.4X4XL.N.T.4X}.}.}.R.XXk.=.+.+.@.o.] ^ Q E s i i a t t a a e i i y s 0 a e V A B K { 0.D.R.4X4X4X4X4X(.4X4X(.T.(.4X(.(.4X(.v.N.(.4X4X",
"U.4XQ.*X4X4X4X4X^.G.d.R.R.a.6. .{ o.O.Q ] ~ [ [ ! [ [ Q S b b r b b V e i a y i i i i e V C A K  .a.H.R.XXY.G.[.[.G.N.U.(.oX*X4X4XM.U.*XoX*X",
"4XoX*X*X4X4X4X4X}.J.l.p.0.+._ o.o.' ' ' ] ] ~ ~ ] ~ ] ] ] ~ U A b b t t a a a i i i y i y y y a n M H { h.h.6.C.t.Z.T.(.4X4X*X*X(.M.K.K.L.P.",
"4X4X*XQ.4X}.}.}.XXD.-.Y I T ^ ! ] ' ~ ~ ~ ' ] ] ~ ~ ~ ~ o.o.o.~ ~ U S V t e e e a a a i i u u y i e V b A Y ) q.D.e.b.}.4X4X4XU.m.G.K.K.L.M.",
"4XT.Q.E.H.H.XXR.f.) v B B 9 e E Q ~ ] ] ] ] ~ ~ ] ] o.] ' ~ ~ ~ O.] ~ Q D Z C a i i i i i y a a i i Z V 9 b m J G &.F.J.k.R.R.J.H.}.M.Q.*Xx.",
"}.(.4XG.a.l.l.&.G B B v v C C 6 a C D Q ~ ' ] O.~ ~ ] ' ' ' ' ] ~ ] ] O.] ^ Q D C C a e e i a a a 0 a a t C b v B Y h G =...P J.J.XXP.*X4XT.",
"^.G.U.XXl.} G N B v i C b t i i 0 e a a C D W ~ ] ] ~ ~ ~ ~ ~ ] ] ] ] ] ] ] ] ^ ~ Q D Z C t e e i i y i i i e V V r b B v I N { g.J.}.U.T.4X",
"T.Z.b.t.L H B b V a y q 0 i a y a a a e e e a V Q Q ~ ' ] ] ~ ~ ] ] ~ ~ ~ ] ] ] ] ] ~ ~ W D A C a a i y s i 6 y i i e e r C r A H | H.N.v.4X",
"L.v.s.j.m n V e i i u u a C a y i i i a a i i e e a Z D Q ! ] ] ] ] ] ] ] ] ' ' ~ ' ] ] ] ~ Q Q S C 0 0 i y p s u y s s e y t r & j j.Y.v.N.",
"*X4XZ.z.B a 0 s y u w u a e 0 a a i y i i i i i i a t e t C D Q ] ] ~ ~ ] ] ' ' ' ' ' ' ' ' ' ' O.~ W D a y p q u u u y u y i 6 8 f f.R.b.U.",
"P.U.Y.f.M e y u u u w u a b a y y y y i y i i i a a a a a a a t S D Q ] ] ] ] ~ ' ] O.O.o.' ' ~ ~ ' ] ] ! E Z a y y q s q 4 0 3 5 c f.R.N.(.",
"I.Q.(.8.v i p u u u u u a b a y y y y i y y i i a a a a a a a i e t V S D Q ] O.] ' ~ ~ ~ ' o.O.o.' ~ ~ ~ ^ ! [ E Z i 0 8 8 8 3 3 9 g.H.}.4X",
"I.*X}.f.b a i y u u u y b b a y y y y y y y y y i i i i i i a a e e e e a C D D ^ ~ ] ] ] ' ~ ~ o.' ' o.] ' ^ ] #.^ V 3 3 3 8 3 3 c f.V.4X4X",
"Q.Q.}.z.B e y y y y y i b b i y y y y y y y y y i i i i i i a a a a a t e e t a C S W ~ ] ] ] ] Q ~ ' o.o.o.' ~ O.O.V 3 8 8 8 3 3 9 q.V.4X4X",
"*XoX}.f.M e i a i i i i b t y y i a i i i i i i i i y y y y y y i i i a a i i i e e a C D Q ^ ] ' o.' Q ~ o.o.' ~ O.V 3 8 8 3 3 3 9 y.R.(.4X",
"E.4X}.f.b a a t i i i i b t y u y a i i i i i i i i y y y y y y y i y i i i i i a a i e i a C Z ~ ~ ] ' ~ ' ' ~ ~ ' C $ 5 3 3 6 4 % 8.XXN.*X",
"U.4X}.z.M a a e t t i a t a u u y a a i i i i i i y y y y y y y p i i y y y y i i i i i i i i i e V D ^ o.' ' o.' ' n < < , , 6 4 & 8.(.M.*X",
"4X}.}.z.B e i a t a i i t i u u y i a a i i i i i y y y y y y y y y y y y y i i i i i i i i i i 0 0 C ^ o.Q T o.] ' b 3 3 , , , 5 & e.}.U.4X",
"}.4X4Xz.B i i i i i i i i i y y i i i i i i i i i i i i i i y i y i y i i i i i i i i i a i 0 4 3 5 C ] ' ' ' ' ] O.C # 3 6 6 , 5 & j.(.G.4X",
"}.}.4Xj.M i y i y i i i i y i i i i i i i i i i i i i i i i i i i i i i i i i i i i i i 0 0 4 4 3 5 C ] ' ' ' ' ~ ] V 3 4 4 3 3 3 f j.}.s.(.",
"}.}.4Xj.M i y i y i i i i y i i i i i i i i i i i i i i i i i i i i i i i i i i i i i 0 6 3 3 3 3 5 C ] ' ' ' ' ' O.V 3 4 3 > 4 3 f j.}.5.Z.",
"}.}.4Xj.M y y i i i i i i y i i i i i i i i i i i i i i i i i i i i i i i i i i i i i 6 3 , 3 4 3 5 C ] ' ' ' ' ~ #.C 3 4 5 3 4 4 % j.Z.N.Z.",
"}.}.4Xj.b y y i i i i i i y i i i i i i i i i i i i i i i i i i i i i i i i i i i i 0 6 , 3 6 4 3 5 C ] ' ' ' ' ~ O.V # 3 4 6 6 5 % a.b.}.(.",
"}.}.4Xj.M y y i i i i i i y i i i i i i i i i i i i i i i i i i i i i i i i i i a i 0 1 3 6 6 3 3 5 C ] ' ' ' ' O.O.C 3 3 4 6 , 3 c a.Z.}.}.",
"}.}.4Xj.B i i i y i i i i y i i i i i i i i i i i i i i i i i i i i i i i i i i i i 0 6 3 6 4 3 3 8 C ] ~ ] ' ' O.Q V 5 4 3 6 , 3 c j.[.(.}.",
"}.}.4Xj.B i i i y i a i i y i i i i i i i i i i i i i i i i i i i i i i i i i i i i 0 6 , 3 4 3 3 8 C ] ~ ] ' ] Q V 3 3 4 3 4 6 5 % z.}.(.}.",
"}.}.4Xk.b i i i i i i i i y i i i i i i i i i i i i i i i i i i i i i i i i i i i i i 6 3 3 4 3 0 3 C ^ ] ] Q A 5 5 3 3 3 3 3 3 3 & j.[.}.}.",
"}.}.4Xk.M i i i y i i i i y i i i i i i i i i i i i i i i i i i i i i i i i i i i i i 6 3 3 4 3 4 3 S #.~ C r 5 5 3 3 3 3 3 3 3 5 f j.}.}.}.",
"XX}.(.k.b i i i y i i i i y i i i i i i i i i i i i i i i i i i i i i i i i i i i i i 6 3 3 6 3 3 3 C W C 5 3 3 5 3 3 4 3 3 3 3 3 & j.}.}.}.",
"^.(.^.j.b i i i y i i i i y i i i i i i i i i i i i i i i i i i i i i i i i i i i i i 6 , 3 6 3 4 3 4 5 3 5 8 5 3 3 4 4 3 3 3 3 3 & j.}.}.}.",
"}.}.(.j.b i i i y i i i i y i i i i i i i i i i i i i i i i i i i i i i i i i i i i i 6 3 3 6 3 8 3 3 3 5 5 5 3 3 3 4 4 3 3 < 3 3 & j.}.}.}.",
"}.}.(.j.b i i i y i a i i y i i i i i i i i i i i i i i i i i i i i i i i i i i i i i 6 3 3 6 3 6 3 4 4 0 5 3 5 3 3 4 4 3 3 < < 3 f j.}.}.}.",
"}.}.(.j.b i i i y i i i i y i i i i i i i i i i i i i i i i i i i i i i i i i i i i y 6 3 3 3 3 4 4 4 5 5 3 3 0 3 3 4 4 4 4 < < 3 & z.}.}.}.",
"4X4XT.d.m V t a i i i i y y y i i i i i i i i i i i i i i i i i i i i i i i i i i i y 6 3 3 4 3 > 4 4 3 3 5 3 3 3 3 3 3 3 4 1 3 5 f j.R.Y.G.",
"+XW.W.C.| G m n n e i i p q p p a a a i e y y i y y i y y y i i i i a e i a i a y a i 6 , , , 4 3 4 4 4 4 6 4 5 5 5 5 5 3 , 6 5 d / d.H.Z.Y.",
"4XoX[.}.R.D.7.R B n b 0 a i y q i e e i a s i y y y y y i i i i a a i i a a i i i a q 4 3 4 3 6 4 4 3 > > > 3 3 0 5 5 9 8 5 8 f 6.C.R.R.(.(.",
"XXG.m.(.}.(.(.Y.l.&._ H n r C i a a i i y y y u i y y y i i i i e i e y a a i i i a 0 3 3 4 5 5 3 3 3 4 4 4 6 6 , , 3 9 % d  .z.R.XXR.R.}.}.",
"XXR.s.(.Y.Y.[.+XY.A.D.l.-.N N = r t a i i i i i y y i i i i i i y y ; , q y p a y a e 3 3 5 5 5 5 8 3 5 4 3 , , 6 0 $ % ( f.(.Y.XXXX}.}.(.^.",
"u.T.U.U.T.[.4XT.Z.(.(.k.R.D.i.%.Y K M V C C V e i i i a i y y i p 2 + O ; , q q y a e 3 3 8 9 5 9 8 3 3 4 , , 6 3 9 H 7.J.}.4X4X(.}.}.(.4XT.",
"4X4X(.N.4X^.4Xs.r.,.U.}.}.N.}.XXJ.p.$.Y m v b V b t t i i y y y y 2 O O - - - + 1 i 0 3 5 8 8 8 7 5 3 4 4 3 3 9 f *.D.J.}.4X4X4X4X(.G.U.4X4X",
"4XoX4X4X4XU.}.T.s.}.4Xu.4X*XQ.4X}.R.R.D.f.%.L m K b t i i y y u u 2 + + - O O . : q q 6 3 5 5 8 8 3 5 5 5 9 m L l.R.Y.^.4X4X(.}.4XT.4X4X(.4X",
"+X+X4X*XS.}.(.G.}.(.'.M.Q.I.*X4X4X4X}.}.XXJ.C.g._ I M n V a i i p u + o o . - - : u y 6 > 3 3 3 5 3 5 & c ( 8.J.(.4XE.*X4XE.T.4X4X4X4X4X4X4X",
"4X4X4X'.(.^.'.'.'.4X(.M.E.E.~.*X4X4XoX4X4X}.Y.J.D.q.*.R K B M b V e + o X o ; O : p u ; , 6 > 4 4 5 & F | e.}.4XP.(.4X4X^.^.}.4X4X4X(.4X4X4X",
"}.}.4X4X'.oX4X4X+X4XT.v.N.U.4XP.~.*X*X*X4X4X}.}.C.H.J.D.l.8.$.G A n 9 t 3 o o   : q q 6 6 4 3 5 9 & *.l.H.(.E.I.P.Q.4X}.(.}.4X4X4X4X4X4X4X4X",
"XX}.}.4X4X4X4X4X4X+XW.}.(.}.G.m.(.4X4X4X*X*X*X}.b.Y.Y.Y.(.H.(.D.7._ m B A 0 3 * 6 0 i 4 3 5 9 & Y l.J.R.XX}.4X*XE.Q.oX'.4X4X4X4X4X4XoX4X4X*X",
"XX}.}.4X4X4X4X4X+X4XT.Y.}.1.}.XX^.T.T.4X4X*XoX4XT.4XoX4X+XU.4X[.R.F.g.-.) B A B 9 A v 9 v & B 0.H.R.R.XXR.}.N.T.E.Q.*XoX4X4X4X}.4X4XE.4XE.4X",
"}.}.4X4X4X}.}.}.4X4XN.}.[.Y.}.N.}.}.}.4X4XT.P.U.Q.*X4X4X4X4X4X4X}.R.R.J.J.l.-.J J G F d g 7.J.H.XXU.}.Y.V.H.XXT.(.*X*X*X4X4X4X}.4X4X4X4X4X4X",
"4X4X4X4X4X(.^.^.^.4XN.4XN.3.4Xr.b.(.4X}.4X4X4X4XM.Q.4X*XU.4X*X4X4X[.(.XXR.R.J.J.f.X./ | k.R.(.}.4X!.5.}.s.G.(.Y.^.4X4X4X4X4X4X4X4X(.4XU.4XT.",
"4X4X4X4X4X}.(.'.}.(.T.4X(.(.v.2.v.(.4X*XoX4X4XoX3.M.'.4X}.}.}.'.*X*X4X4X(.R.(.XXXXR.Y.(.}.4XE.N.4.n.4X4.P.*X4X(.^.4X4X4X4X4X4X4X4X^.(.N.}.T.",
"4X4X}.4X4X4X}.4XT.4X4X3.4X4Xv.2.v.U.oX4X4X4X4XE.4X4XN.(.XX}.}.}.*X*X*X*X}.4X}.(.}.}.4X4XoX4XQ.4.U.}.*X*X*X*X4XP.^.}.}.(.(.oXoXE.T.(.U.^.[.4X",
"4X4X4X4X4X4X4X4X4X4X4Xv.4X4X4X:.4X*X4X(.4X4X4XU.4X4Xv.(.4X4X4X4X4XoX4X4X4XN.4X(.}.4XT.4X4X*X4Xv.4X4X4X*Xn.U.^.N.T.U.4XU.5.4.T.4X4XN.N.(.4X(.",
"4X(.(.4X4X4X4X4X4X4X(.U.T.(.T.:.4X4X4X4X4XN.v.(.4X4XN.T.4X4X4X4X4X4X4X4X4XT.*X4X4X4X4X(.(.4X3.N.4XT.4X4Xv.T.U.4XU.T.(.v.5.v.v.,.v.v.(.4XN.v.",
"4X(.T.(.4X4X4X4X4X(.4X(.U.*X(.,.4X(.4X(.N.4X4X3.v.4X(.(.4X4X4X4X4X4X4X(.4XT.M.4X4X4X4X(.4X(.3.(.4X4X4XT.v.N.4X4X(.4X4XP.N.N.T.(.4X4X4X4X4X4X",
"4X4X(.(.4X4X4X4X4X(.4X4X4X4X4XN.4X4X4X4X4XU.v.N.,.4X4XT.4X4X(.4X4X4X4X4X4X(.N.T.4X4X4X4X4Xv.(.4X(.U.(.x 4X4X(.(.(.T.T.(.4XU.(.4X4X4X4X(.T.(.",
"4X4X4X4X4X4X4X4X4X(.4X(.4X4XT.U.4X4X4X(.T.4X(.4.5.4X4X4.4X4X4X4X4X4X4X4XT.4XT.T.4XT.4X4X(.N.4X4X4X4Xv.N.4X4X4X4XT.4X4XT.4X4X4X(.(.4X4X4X(.(.",
"4X4X4X4X4X4X4X4X(.4X4X4X(.4X5.N.N.4X4X4XT.(.(.U.5.4X4Xz 4X(.4X4X4X4X4X4XN.4X4XT.4X4X4X4X(.(.4X4X4XT.T.U.4XP.N.4XM.(.4XN.U.(.4X4X4X4X4X4X4X4X"
};
