/* XPM */
static char *_6f637efe9204c9c9f9ad207ca636d43Jo3qffxlIAhV3142[] = {
/* columns rows colors chars-per-pixel */
"70 70 193 2 ",
"   c #131313",
".  c gray8",
"X  c #151515",
"o  c gray9",
"O  c #181818",
"+  c #191919",
"@  c gray10",
"#  c #1B1B1B",
"$  c gray11",
"%  c #1D1D1D",
"&  c #1E1E1E",
"*  c gray12",
"=  c #202020",
"-  c #222222",
";  c #232323",
":  c gray14",
">  c #252525",
",  c gray15",
"<  c #272727",
"1  c gray16",
"2  c gray17",
"3  c #2D2D2D",
"4  c #2F2F2F",
"5  c gray20",
"6  c gray21",
"7  c #393939",
"8  c gray23",
"9  c #434343",
"0  c #444444",
"q  c gray27",
"w  c #464646",
"e  c gray28",
"r  c #484848",
"t  c #494949",
"y  c gray29",
"u  c gray30",
"i  c gray32",
"p  c #535353",
"a  c gray33",
"s  c #565656",
"d  c #585858",
"f  c #5A5A5A",
"g  c #5B5B5B",
"h  c gray36",
"j  c #5D5D5D",
"k  c gray37",
"l  c #5F5F5F",
"z  c #606060",
"x  c gray38",
"c  c gray39",
"v  c #646464",
"b  c #656565",
"n  c gray40",
"m  c #676767",
"M  c DimGray",
"N  c #6A6A6A",
"B  c gray42",
"V  c #6C6C6C",
"C  c gray43",
"Z  c #6F6F6F",
"A  c #727272",
"S  c gray45",
"D  c gray46",
"F  c #767676",
"G  c #777777",
"H  c gray47",
"J  c #797979",
"K  c gray48",
"L  c #7B7B7B",
"P  c #7C7C7C",
"I  c gray49",
"U  c gray50",
"Y  c #808080",
"T  c #818181",
"R  c gray51",
"E  c #838383",
"W  c #848484",
"Q  c gray52",
"!  c gray53",
"~  c #888888",
"^  c #898989",
"/  c gray54",
"(  c #8B8B8B",
")  c gray55",
"_  c #8D8D8D",
"`  c #8E8E8E",
"'  c gray56",
"]  c #909090",
"[  c gray57",
"{  c #929292",
"}  c #939393",
"|  c gray58",
" . c #959595",
".. c gray59",
"X. c #979797",
"o. c #989898",
"O. c gray60",
"+. c #9A9A9A",
"@. c #9B9B9B",
"#. c gray61",
"$. c #9D9D9D",
"%. c gray62",
"&. c #9F9F9F",
"*. c #A0A0A0",
"=. c gray63",
"-. c #A2A2A2",
";. c gray64",
":. c #A4A4A4",
">. c #A5A5A5",
",. c gray65",
"<. c #A7A7A7",
"1. c #AAAAAA",
"2. c gray67",
"3. c gray68",
"4. c #AEAEAE",
"5. c #AFAFAF",
"6. c gray69",
"7. c #B1B1B1",
"8. c #B2B2B2",
"9. c #B4B4B4",
"0. c #B6B6B6",
"q. c #B7B7B7",
"w. c gray72",
"e. c #B9B9B9",
"r. c gray73",
"t. c #BBBBBB",
"y. c #BCBCBC",
"u. c gray74",
"i. c gray",
"p. c gray75",
"a. c #C0C0C0",
"s. c #C1C1C1",
"d. c #C3C3C3",
"f. c gray77",
"g. c #C5C5C5",
"h. c #C6C6C6",
"j. c gray78",
"k. c #C8C8C8",
"l. c gray79",
"z. c #CACACA",
"x. c #CBCBCB",
"c. c gray80",
"v. c #CDCDCD",
"b. c #CECECE",
"n. c gray81",
"m. c #D0D0D0",
"M. c gray82",
"N. c #D2D2D2",
"B. c LightGray",
"V. c gray83",
"C. c #D5D5D5",
"Z. c gray84",
"A. c #D7D7D7",
"S. c #D8D8D8",
"D. c gray85",
"F. c #DADADA",
"G. c gray86",
"H. c gainsboro",
"J. c #DDDDDD",
"K. c gray87",
"L. c #DFDFDF",
"P. c gray88",
"I. c #E1E1E1",
"U. c #E2E2E2",
"Y. c gray89",
"T. c #E4E4E4",
"R. c gray90",
"E. c #E6E6E6",
"W. c #E7E7E7",
"Q. c gray91",
"!. c #E9E9E9",
"~. c #EAEAEA",
"^. c gray92",
"/. c #ECECEC",
"(. c gray93",
"). c #EEEEEE",
"_. c #EFEFEF",
"`. c gray94",
"'. c #F1F1F1",
"]. c gray95",
"[. c #F3F3F3",
"{. c #F4F4F4",
"}. c gray96",
"|. c #F6F6F6",
" X c gray97",
".X c #F8F8F8",
"XX c #F9F9F9",
"oX c gray98",
"OX c #FBFBFB",
"+X c gray99",
"@X c #FDFDFD",
"#X c #FEFEFE",
"$X c white",
/* pixels */
"$XXXQ.M.i.1.$XS. X$Xh.$X$X$XXX$X$XXXQ.U. X$X X[.XX$X X X[.XX$X$Xa.$X X6.Q.[.$X$X$X$X$X$X$X$X$X$X$X$X$X$X$X$X$X$X$X$X$X$X$X$X$XXX$XXX X X$X$X",
"$X$XU.Q.XX$X$X$XJ.XXi.$XXX$X[.XXR.[.R.M./.XX$X$X$X XXXQ.[.XX$Xh.S.M.h./.a.$X$X$X$X$X$X$X$X$X$X$X$X$X$X$X$X$X$X$X$X$X$X$X$X$X$X$X$X$X$XXX X$X",
" X$XQ.$X$X$X$X$XU.$XXXR.$X$XM.$XXX$XR.J.$X$XXX$X$XXXXX$XU.k.[.$X9.XX$X XR.$XXX$X$X$X$X$X$X$X$X$X$X$X$X$X$X$X$X$X$X$X$X$X$X$X$X$XXX$X$X$X$XXX",
"$X$X XXX$XXX$X X$XU.$Xr.[./.XX$XQ. XM.c.$X$X$X$X$X$XXXQ.J.k.$X X$X$XXX[.$X$X$X$X$X$X$X$X$X$X$X$XXX$X$X$X$X$X$X$X$X$X$X$X$X$XXXXX$XXX$X[.$X X",
"$X X$X/.[.$XXXQ.XX$X[.k.U.M.$XXXJ.U.a.S.$X$X$X$X$X$X$X$XU.J.Q.XX$X$X$X/.$X$X$X$X$X$X$X$X$X$X$X$X X$X$X$X$X$X$X$X$X$X$X$X$X$X X[.$X$X$X$X$XXX",
"$X$X$X$XS.$X$X/.$X$X$Xr.i.M.r.J.r.h.c.[.XX$X$X$XXX$X[.J.h.XXi.XX$X$X$X/.$XXX$X$X$X$X$X$X$X$X$X$XXX$X$X$X$X$X$X$X$X$X$X$X$X$XXX[.[.$XXX$X X X",
"$X$X[.$XJ.Q.$X[.$XXX$Xh.=.3.R.XXk.A.M.a.1.A.$X$X$X$X XM.A. Xc.$XXX$X$X$X$X$X$X$X$X$X$X$X$X$X$X$X$X$X$XXX$X$X$X$X$X$X$X$X$X$XXX X$X$X$XXX[.$X",
"$X$X$XXXXXS.S.$X$X[.$Xc.6.r.$X$XS.r.M.[./.$X$XQ.[.k.A.XXXX$X$XXX$XXXXX$X$X$X$X$X$X$X$X$X$X$X$X$X$X$XXX XXX$X$X$X$X$X$X$X$X$XXXXX$X$X$XQ.XX$X",
"$X$X$X$XXX$X[. X$X$X$XQ.R.$X$X X[.a.XXi.$XXX$X$X$X$XS.XX X$X$X$XXX$X$X$X$X$X$X$X$XXX$X$X$X$X$X$X[.$X$Xc.$X$XXX$X$X$X$X$XXX$XXXXX$X$X$X$X$X$X",
"XX X[. X X$X X[.$X$X$XXX XXX$X$XA.$XQ.A.$X$XXX$X$XXX$Xc.c.$XXXXX$X$X$XXX$X$X$X$X$X$X$X$X$X$XXX$X X$X$X$XQ.$X$X$X$X$X$X$X$X$X$XXX$X$X$X$X$X$X",
"$X[.[. X X$X$XXXJ.$X$Xh.M.XXi...=.$X$XXX$X$XXX$X$X$X$XJ.A.M. X$XXXXX$X$X$X$X$X$X$X$X$X$X$X$X[.$X$X$X$X$X$X$X$X$X$X$X$X$X$XXX$XXX$X$X$X$X$X$X",
"$X[. XXX X$X$X$X$X/.$XQ.R.+.+...3.M.$X$X$X$X$XXX$X$X[.$XJ.R.[.$X$X$X$X$XXXXX$X$X$X$X$X$X$X$X X$X$X$XXX X$X$XXX$X$X$X$X$X$X X$X X$X$X$X$X$X$X",
"$X/. X X X$X$X$X$XA.R.R.c.#.,.$X X$XXX$X$X$X$X$XXX$XXX$X[.Q.$X$X/.[.$XXX$X$X$X$X$X$X$X$X$X$X$X$X$X X$XXX$XXX$X$X$X$X$X$X$X[.$X X$X$X$X$X$X$X",
"$XQ./.[.XX$X$X$X$XXX X XQ.U.XXJ.$X$X$XXXXXQ.[. X$XU.$XXX$XQ.R.XX X$X XS.XXQ.J. X$X$X$XXX$X$X$X$X$X[.$X$X$XXX$X$X$X$X$X$XXXXX$X$X$X$X$X$X$X$X",
"$X/./.[.$X$X$X$X$X XM.XXXXXX/.$X$X[.$XXX$X XXX[.XXXXU.$XXX$X/.U. X X$X$XXX[.$XXX$X$X$XR.$X$X$X$X$X$XS.$X$X$X$X$X$X$X$X$X X$X$X$X$X$X$X$X$X$X",
"$X[.[.[.$X$X$X$X/.$XR.$X$XXX$X$X$X$XXX$X$X$X$X$X$XXX X$X$X$XXX$X6.U.R.c.Q.M.M.$XXX$XXXS.$X$X$X$X$X$Xk.$X$XXX$X$X$X$X$XXX[.$X$X$X$X$X$X$X$X$X",
" X$X[. X$XXX$X$X/.$XXX$X$X$X$X$X$X X X$X$XXX$X$X X$X/.XX$X X$XXXXX$X$X$X X3...$X$XQ.$X$XXX/.$XXX$X$XY $X$X$XXX$X$X$X/.[.[.$X$X$X$XXX$X$X$XXX",
"$X$XQ./.XXXXXXXX$XXX$X[.$X$X$X[.XX$X$X$XXX$XXX$X$Xc.$XXX X$X$XS.$X$X$X$X$Xa.$XM.R.$X$X$XXX$X+.i.+.U.XX=./.$X$XXX$X X[. XQ.$X$X$X$X$X$X$X$X$X",
"$X$X/. X$X$X$X$X X$XXX$XXX$X$XXXS. X$X$X$X$X$X$XXXXX$X$X$XJ.R.D XX$XXX$X$XA.c.$X` $X$XY R. X$X$X$X$X$XXX$XR.c.$X$X/. XXXQ.$X$X$X$X$X$X$X$X$X",
" XXX[.$X$X$X$X$X X X$X$X$X$X$X$X$X$X/.c. XXX$XR.J.$X$Xc.$X$Xi.A.$X$X$X$X$XXXS.U $X$XXXU.$X$Xk.$X$XXX$X$X$X$X$X+.XX/. XXX/.$X$X$X$X$X$X$X$XXX",
"Q.[./.$X$X$X$X$X$X$XQ. X$X$X$X$X$X$XXX$X=.U.[.R.XX$XA.1.} 3.g $X$X XXX$X$X$Xv $X$X$XXX$X$XM.+.$X$X$XXX$X X$XU.$X X/. XXXXX$XXX$X$X$X$X$X$XXX",
" X XQ.$X$X$X$X$XXX$XA.$X$X$X$X$XXX$Xi.$X$X$X$Xc.+.$X$X X,.c * l B [.$X$XXX$X- [.XXXX$Xk.} g  X$X$XA.J.h.,.} $X$X X X X$X$X$XXX$X$X$X$X$X$X$X",
"$X XR.$X$X$X$X$X$XU.$X$X$X$XXX$X$X$XQ.XX$X X XQ.$XB a.$X$X$X X^ [.B 3.M.h.,.- ^ 6.Y U ` Q $XXX$Xr.i.$X$X$XA.S.$X XXX X$X X/.$X$X$X$X$X$X$X$X",
"$XXXQ.$X$X$X$X$X$XJ.$X$XXX$X$X$X$X Xi.a.$XXX$XZ ..S v M.$X$XY p #.A.D Y U U # 7 Y U.l J.XX$X$X X9.h.$XXX$X$XXXc.[.[.[.$XR.S.XXXX$X$X$X$X$X$X",
"$XXX$X$X$X$X$Xc./.XXk.6.i. XXX$X$X$XXXa.$X9.u 0 0 ^ $Xl ^ K 7 # - # : # * : # * - 9 $X$XXX$X$XQ.Q 0 Z R.$X$XXXXXS./.XXJ.U.Q./.XX$X$X$X$XXXQ.",
"$X$XXXQ.XX$X$X$X$X$X$X$XXX XXXJ.1.#.a./.a.3.9  X} 0 1 # Y u * # # - * # * #   * * XX$XXX$X X=.} 1 Y c.} g 6.U././.[.XXJ.M.XX[. X$XXX$XXX[.R.",
"XX$X$XXX$X$XXX$X$X$X$X$X$X$X$X` A.s A.} S r.* v } +.0 * Q # X # # X   # * * 0 # X p i.#.^ K $X XM.U 7 : - ,.+.k.XX XXXM.A.A./. X$X$X$XXXQ.R.",
"$XXX$X$X$X$X$X$XXX$X$X$X$XXXM.Y } 1 U ` 9 5 s /.XX$X X,.* K i.y # : # :   X } 3 : * Y D l y $X$X$X$X$XQ.}  X XXXA.J././.Q.S.J.Q. X$X$X$X[./.",
"$XXX$X$X$X$X$X$X$X$X$X[.3.R.$X$XU.0 y M.$X$XB $X$X$X$X$X# s l 9.XXg * ` 3 * v p r.: D  X Xc  X$X X[. X$X/.k.[.$X[.M.$X/.R.A.S.R.$X$XXX XR.[.",
"XX$X$X X$X$XXX$X X$X9.XX$X$X$XQ.U.$X$X$X$XXXS.XX$X$XXXXX6.$XXXr.U c Z c - =.X Z +.l $X X$X XZ Q.XX$X$XXXXX$XM.A.+.$X XXXR.R.S.R.$X$X$X$X$X$X",
"$X$X/.U.Q.$X$X$Xh./.XX$X$X X[.$X$X$X$X X$X$X$XS $X$X$X=.S...$XXXc./.6 Q.A.$Xc $X$XXXR.$X$XXX` $X XQ.h.,.=.1.M.g $X$X$X[.Q.[.M.J.$X$X$X$X$X$X",
"$X$XXX$X X$XQ.9.XX$X$XXX$XJ.$X$X$X$XXX$X$X$X$XY /.M.S.$X$X$XS.k. X$X#.D +. X0 $X$X$XR.$XXXi. XXX$X$XXX$X$XXXXXY ` [.$X/. XQ.S.J.$X$X$X$X$XXX",
"$X$X$X$X$XXX[.$X$X$X$X$XQ.$X$X$X$X$X$X$X$X$X$XR.,./.$X$X$XXX$X` $X$Xc.g v Y K $X$X$X$Xc.$Xk.a.$X$X$X$X$X$XXX X$Xc.$XXXh.,.h.Q.A.$X$X$XXX$X$X",
"$X$X$X$X$X X$X$X$X$X$XXX$XXX$X$X$XXX$XXX$X$Xk.$X} XXXX[.[. X9.` J.U.^ #./.$X$X,.XX$X$X$X`  X$X XQ.$X$X X$X X$X$X,.Q.$X XA.Q.S.r.A.$X$X$X$X$X",
"$X$X$X$X$X/.$XXX$X$X$XS.XX$X$XXX$X$X$X$XXX$X$XQ  X X$X$X$X$X$Xk.XX/.p  X[.$X XXXi.$XXXXX6.$X$X$X$X/.$X$X[.$X$XXXM.[.$X$XS.h.[. X$XXXS.Q.$XXX",
"$X$X$X$X$XU./.[.J.Q.U.$X$X$XXX$X$X$X$XXX$XXX$Xr.$X XXX$X$X$XXXM.$X$X^ l XX$X$X$X$XR.$X$Xk.$X$X$X$X$X$Xc.$X$X$X$XXX$X$X$X$Xc.J.$X X$XXX$X$X X",
"$X$X$XXX$XU.J. XQ.J.U $X$X$X$X$XXX$XXX$X$X$X$Xi.XX$XJ.$X$X$X$Xr.$XR.$X[.g J.$X$X$X$Xc.1.XX$X$X$X$X$X$X$X[.XX$X,.$X$X$X X$X$Xi.$X$X$X$X$X$X$X",
"$X$X$XXX$XQ.U.XXXX/.a.$XXX$X$X$X$X$X$X$X X$X$XM.$X$X$X/. X$X$X$X6.3.XXZ $XA./.$X$X$X$Xi.$X$XXX$X$X$XQ.$X$X$XQ.,.$X$X$X$X$X$XA./.$X X$X$X$X$X",
"$X$X$X$X$X[.[.[.$X$XR.XX$XJ.$X$X$XXX$X$X$X$X$X X$X$X$X$X$X$X$X$XXX} [.$X$X/.h.Q.$X$XS.XX$X$X$X$X$XQ.$XXX$X$X$X6.$X$XXX$X$X XXXc.$X$X$XXXXX$X",
" X$X$X$XXX X$XQ.Q.XX$X$X$XXXR.$X$X$X$X$X$XJ.^ $X$X$X$X$XXX$X$X$X$XU.Z XX X$X$XU.9.$X` $X$XXX$X$X/.$XXX$X$XXXXXXXr.$X$X$X$X$X$XA.$XXXXX$X$X$X",
" XXX$X X/. X/.Q.R.[.XX[.XXQ.J.XXXX$X$XR.Q.$XA.$X$X$X$X$X$X$X$X$X$X$XB $X$X$X$XXX$X` $X$X$X$X$XXXXX$X$X$X$X$X$X$X$X6.XX$X$X$X$XM.$X$X$XXX$X$X",
" XXX X/./.[.Q.Q.Q.U.A.,.J.S.M. XXX XXX$X$X$XXX$X$X$X$X$X$X$X$X$X$X$Xa.$XXX$X[.$X$X$X/.$X$X$X$X X$X$X$X$X$X$X$X$X$XXXU.$X$X$X$X X$X$X$X$XXX$X",
"XXXX/.Q./.Q.R.R.Q./.A. XQ.A.S.[.$XU. X$XXX$XXXXX$X$X$X$X$X$X$X$X$X$XS.$X$X$XXX$X$X$Xc.$X$X$XQ.$X$X[. X XXX$X$X$X$XQ.[.XX$X$X$X X$XXX/.$XXXXX",
"$XXX[. X[.R.Q.Q. XR./.$Xl 3.c.Q.XX$X$X$X$X$X$X$X$X$X$X$X$X$X$X$X$XXX/.$X$X$XXX$XXX$Xr.$X$XA.[.$X$XR. X X$X$X$X$X$XU.$XQ.XX$X$X$X X$X XXXXX$X",
"$X X X$XXX[.XX/. XU.$X9. XXXJ.J.J.[.$X$X$X XXX$X$X$X$X$X$X$X$X$X$X$X$X$XXX$X$X$X$X$X/.XXQ.$X$XXX$X/.$X$X$X$X$XXX$X X$X$X[.XX$X$X X$X[. X$X$X",
"$X X X$X$X$X$X/.U.XX,.$X$X$XS.A.J.M.XXXX$X$XXX$X$X$X$X$X$X$X$X$X$X[.XX$X$X$X$XXX$X[.$X,.$XXX$X$X$X X$X$X$X$X$X$X/.$XXX$X$X$XXX$XR. XJ.U.Q.$X",
"$XXXXX XXX$X X/.R.9.$X$X$X$XXX/.J.A.J. X$X$X$XXX$X$X$X$X$X$X$X$X$XS.$X$X$X$X X$X/. X$X[.$X$X$X$X$X$X$X$X$X$X$X$X$XXX$X$X$X$X$X$XM.XX$X XQ.XX",
" X$X$X[.XX$X[.$XU./.$X$X$X$X$X$XS.S.Q. X$X$X$X$X$X$X$X$X$X$X$X$X$X[.$X$X$X$X$XXX XXX X$XS.$X$XXX$X$X$X$X$X$X$X$X$X$XXXXX$X$X[. XXXS.U. X$XXX",
"$X$X$X$X/.$XXX XXXXX$X$X$X$XXX$X[.S.Q.$X X$X$X X$X$X$X$X$X$X$X$X$XU.$X$X$X$X$X$X$X$X$X$X$X$X$X$X$X$X$X$X$X$X$X$X$X$X$X$X$X$X$X$X$XXXA.c./.$X",
"$X$XXX$X$XXXXX[.$X$XJ.$X$X$X$X$X$X X$X$X$X XU. X$X$X$X$X$X$X$X$X XJ.XX$X$XXXXX X$X$X$X$X$X$X$X$X$X$X$X$X$X$X$X$X$X$X$X$X$X$X$X$X$X$XXXXX/.XX",
"$X$X$X$X X XQ.$X$XXXQ.S.R.XX$X$X X X$X[.XX$XJ.$X$X$X$X$X$X$X$X$X$X[.$X$X$X$X$XXX$X$X$X$X$X$X$X$X$X$X$X$X$X$X$X$X$X$X$X$X$X$X$X$X$XXX$X$XQ. X",
"XX$X$X$X$XJ.$X$X$X$X XU./.J.$X$XJ.$XXX XQ.U.$X$X$X$X$X$X$X$X$X$X$X$X$X$X$XXX$X$X$X$X$X$X$X$X$X$X$X$X$X$X$X$X$X$X$X$X$X$X$X$X$X$X$X$XXX$X[.[.",
"$XXXXX$X[.XX XXX$X$X[.[./.[././.J.S.U.J.R.$X$XXX$X$X$X$X$X$X$X$XXX$X$X$X$XXX$X$X$X$X$X$X$XXX$X$X$X$X$X$X$X$X$X$X$X$X$X$X$X$X$XXX$X$X$XXX$X[.",
"$XXX$X$X$X/.$X[. X X/.Q.J.XXS.U.XX$X$X$X$X$X$X$X$X$X$X$X$X$X$X$X$X$X$X$X$X$X$X$X$X$X$X$XXXXX$X$X$X$X$X$X$X$X$X$X$X$X$X$X$X$X$XXX$XXX$XXX$XXX",
"$XXX$X$XXX$XXX$XXXXXU.[.R.A.U.[.$XXX$X$X$X$X X$X$X$X$X$X$X$X$X$X$X$X$X$X$X$X$X$X$X$X$X$XXXXX$X$X$X$X$X$X$X$X$X$X$X$X$X$X$X$X$X$X$X$X$X X$XXX",
"$X$X$XXX$X$X$X$XXX$X[.[.J.S.R.$X$X$XXX$XXX X$XXX$X$X$X$X$X$X$X$X$XXX$X$X$X$X$X$X$X$X$X$X$X$X$X$X$X$X$X$X$X$X$X$X$X$X$X$X$X$X$X$XXX$X$X$X$X$X",
"$X$X$X$X$X$X$X$X$X$X/././.U.$X$X$X$X$X$XXX[.XX$X$X$X$X$X$X$X$X$X$X$X$X$X$X$X$X$X$XXX$X$X[.$XXX$X$X$X$X$X$X$X$X$X$X$X$X$X$X$X$X$XXX$X$XXX$X$X",
"$X$X$X$X$X$X$X$X$X$X/.R.U.XXXX$X$X$X$X$X$XXX$X$X$X$X$X$X$X$X$X$X$X$X$X$X$X$X$X$X$X$X$XXXXX$X$X$X$X$X$X$X$X$X$X$X$X$X$X$XXX[.[.XX$X$X$XXX$X$X",
"$X$X$X$X$X$X$X$X$XXX[.R. X$X$X$X$X$X$X$X$X$X$X$X$X$X$X$X$X$X$X$X$X$X$X$X$X$X$X$XXX$X$X$XXX$X$X$X$X$X$X$X$X$X$X$X$X$X$X$X$X XXX$XXX$XJ.$X X$X",
"$X$X$X$X$X$X$X$X$X$XQ.[.$X X$X$X$X$X$X$X$X$X$X$X$X$X$X$X$X$X$X$X$X$X$X$X$X$X$X$XXX$X$X$X$X$XXX$X$X$X$X$X$X$X$X$X$X$X$X$X$X$X$X$X$X$X$XR. XR.",
"$X$X$X$X$X$X$X$X$X$XR.$X$X X$X$X$X$X$X$X$X$X$X$X$X$X$X$X$X$X$X$X$X$X$X$X$X$X$X$X$XXX$XJ.$X$X$X$X$X$X$X$X$X$X$X$X$X$XXX$X$X$X$XXX X$XXX/./.$X",
"$X$X$X$X$X$X$X$X$XXXXX$X$X$X$X$X$X$X$X$X$X$X$X$X$X$X$X$X$X$X$X$X$X$X$X$X$X$X$X$X$XXX$Xk.Q.$X$X$X$X$X$X$X$X$X$X$X$X$X$X$X$X$X$X$X$X$XXX X X$X",
"$X$X$X$X$X$X$X$X$XR.$X$X$X$X$XXX$X$X$X$X$X$X$X$X$X$X$X$X$X$X$X$X$X$X$X$X$X$X$X$XXX$X$XS.J.$XXX$X$X$X$X$X$X$X$X$XXX$X$X$X$X$X$X$X$X$X X X$X$X",
"$X$X$X$X$X$X$X$X$XS.Q.$X/.XX$X$X$X$X$X$X$X$X$X$X$X$X$X$X$X$X$X$X$X$X$X$X$X$X$X$X$X$X$X/. X$X$X$X$X$X$X$X$X$X$X$X$X$X$X$X$X$X$X$X$X$XXXXX$X$X",
"$X$X$X$X$X$X$X$X[.XX$XXX[.$X$X$X$X$X$XXX$X$XXX$X$X$X$X$X$X$X$X$X$X$X$X$X$X$X$X$X$X$XXXa.$X$X$X$X$X$X$X$X$X$X$X$X$X$XXX X X$X$X$X$X$X$X$X$X$X",
"$X$X$X$X$X$X$X[.$X$X$XXXXX$X$X$XXXXXXX/.XX$X$X$X$X$X$X$X$X$X$X$X$X$X$X$X$X$X$X$X$X$XQ.[.$X$XXX$X$X$X$X$X$X$X$X$X$X$XXX X X$X$X$X$X$X$X$X$X$X",
"$X$X$X$X$X$X$XQ.[.$X$XXX X$X$X$XXXXX$X/.$X$X$X$X$X$X$X$X$X$X$X$X$X$X$X$X$X$X$X$X$X$X X$X$X$X$X$X$X$X$X$X$X$X$X$X$X$X$XXXXX$X$X$X$X$X$X$X$X$X",
"$X$X$X$X$X$X$XR.U.XX$XXX XXXXXXXXX$X$X/.$X$X$X$X$X$X$X$X$X$X$X$X$X$X$X$X$X$X$XXXXX$X$XXX$X$X$XXX$X$X$X$X$X$X$X$X$X$X$X$X$X$X$X$X$X$X$X$X$X$X",
"$X$X$X$X$X$X$XR.R.XX XXX$X$X$XXX$X$X$X/. X$X$X$X$X$X$X$X$X$X$X$X$X$X$X$X$X$X$XXX$X$X$X$X$X$XXX$X$X$X$X$X$X$X$X$X$X$X$X$X$X$X$X$XXX$X$X$X$X$X",
"$X$X$X$X$X$X$XQ.R.$XXXXX$X$X$X$X$X$X$X[.XX$X$X$X$X$X$X$X$X$X$X$X$X$X$X$X$X$X$X$X$X$X$X$X$X$X X$X$X$X$X$X$X$X$X$X$X$X$X$X$X$X$X$X X$X$X$X$X$X"
};
