/* XPM */
static char *a927519ce00943e6c57709cf68a8dfbcOdOF4Piu1LHLbo46[] = {
/* columns rows colors chars-per-pixel */
"70 70 225 2 ",
"   c #E7A83E",
".  c #E8A83C",
"X  c #DFAC41",
"o  c #DCB44D",
"O  c #D7B04B",
"+  c #DCAC5F",
"@  c #DEB15B",
"#  c #DFBB59",
"$  c #ECAB44",
"%  c #EDAD4A",
"&  c #F1AE47",
"*  c #F3AE4A",
"=  c #ECB144",
"-  c #E4B44D",
";  c #ECB24B",
":  c #E5B143",
">  c #F1B147",
",  c #F2B14B",
"<  c #F5BB4A",
"1  c #E3AE54",
"2  c #EBAC51",
"3  c #E3AF5B",
"4  c #E6B353",
"5  c #E6BE56",
"6  c #ECB359",
"7  c #E4BE5E",
"8  c #E8B75A",
"9  c #F4B352",
"0  c #F4BD54",
"q  c #F2BB5E",
"w  c #D7AE69",
"e  c #DDB163",
"r  c #DEB86F",
"t  c #D8B168",
"y  c #DBB473",
"u  c #D6B67B",
"i  c #E8BA65",
"p  c #E4B669",
"a  c #E5B863",
"s  c #E3BB78",
"d  c #F4C24F",
"f  c #EEC453",
"g  c #E7C258",
"h  c #EDC659",
"j  c #ECCA59",
"k  c #F4CB5C",
"l  c #FECC5F",
"z  c #F6C656",
"x  c #ECC664",
"c  c #EECC65",
"v  c #ECCA6B",
"b  c #E4C366",
"n  c #F2CC63",
"m  c #FBCE69",
"M  c #F5D165",
"N  c #FFDA66",
"B  c #F4D36C",
"V  c #F6DD6E",
"C  c #FDDB6D",
"Z  c #FED568",
"A  c #F5D373",
"S  c #FBD572",
"D  c #F5DB74",
"F  c #FDDC73",
"G  c #F7DB7B",
"H  c #FEDC7A",
"J  c #FAD57A",
"K  c #F6E068",
"L  c #FEE16F",
"P  c #EFE07B",
"I  c #F6E175",
"U  c #FEE174",
"Y  c #FEE27A",
"T  c #ACACAC",
"R  c #A5A5A2",
"E  c #B5B2AD",
"W  c #B4B4B4",
"Q  c #BBBBBB",
"!  c #B6BBBF",
"~  c #D7BF8F",
"^  c #D8B982",
"/  c #DCBD91",
"(  c #E2C282",
")  c #EDDB8E",
"_  c #F2D584",
"`  c #F6DB83",
"'  c #FEDD81",
"]  c #F3DC8C",
"[  c #FFDE8A",
"{  c #EECF9B",
"}  c #E4CB99",
"|  c #EDDD96",
" . c #ECDC9A",
".. c #E7DA96",
"X. c #F4DD95",
"o. c #FBDD93",
"O. c #F5D997",
"+. c #EFE38D",
"@. c #F5E184",
"#. c #FBE282",
"$. c #FFEB80",
"%. c #F5E28C",
"&. c #FFE88E",
"*. c #FBE18D",
"=. c #ECE495",
"-. c #FEE690",
";. c #F4E39E",
":. c #F2E096",
">. c #CEC1B1",
",. c #DDD0BF",
"<. c #E7CDA5",
"1. c #EDD6A7",
"2. c #F2DEA1",
"3. c #F7D9A7",
"4. c #E1D5BB",
"5. c #E9E4A6",
"6. c #F8E0A0",
"7. c #F7E5A9",
"8. c #FFE7B3",
"9. c #F4EAB6",
"0. c #FFE6BA",
"q. c #FDEABA",
"w. c #FFF9BD",
"e. c #C6C6C6",
"r. c #CCCCCC",
"t. c #C7C9C5",
"y. c #D5CECB",
"u. c #DFD7C0",
"i. c #D0D2CB",
"p. c #D1CFD4",
"a. c #CED9DB",
"s. c #D3D3D3",
"d. c #D3D5DA",
"f. c #DCDCDC",
"g. c #D9DBD7",
"h. c #E2DCDC",
"j. c #E1DAD8",
"k. c #EDE4C7",
"l. c #F6E7C0",
"z. c #FFEDCA",
"x. c #F4ECC7",
"c. c #FFF2C7",
"v. c #FFFCC5",
"b. c #FEF2CD",
"n. c #FFF8CC",
"m. c #E2E4DE",
"M. c #E9E3D5",
"N. c #FFEED5",
"B. c #F4E9DB",
"V. c #F0EAD4",
"C. c #FBF1D4",
"Z. c #FFFBD4",
"A. c #FFF3DB",
"S. c #FFFDDC",
"D. c #DEDDE3",
"F. c #E6DDE6",
"G. c #DFE1E0",
"H. c #DEE8E8",
"J. c #E4E4E4",
"K. c #EAE5E4",
"L. c #EAEBE5",
"P. c #E6E5E9",
"I. c #EAE6EB",
"U. c #E5EBEC",
"Y. c #ECECEC",
"T. c #F4EDE3",
"R. c #F3EDEB",
"E. c #EDF0EC",
"W. c #FFF6E3",
"Q. c #FFFDE4",
"!. c #F3F2EE",
"~. c #F9F6EF",
"^. c #F4F9ED",
"/. c #FEFCEC",
"(. c #F3F2E4",
"). c #E7EFF2",
"_. c #EDECF1",
"`. c #EAE9F5",
"'. c #F4EDF6",
"]. c #FAEFF9",
"[. c #EEF4F6",
"{. c #EDF5FA",
"}. c #F4F4F4",
"|. c #FAF5F4",
" X c #F6FBF5",
".X c #FDFCF5",
"XX c #F4F5FA",
"oX c #FBF5FC",
"OX c #F5FCFC",
"+X c #FDFAF9",
"@X c #FBFFFB",
"#X c #FAFDFA",
"$X c #FFFFF8",
"%X c #FDFCFA",
"&X c #FFFDFB",
"*X c #FFFFFA",
"=X c #FFFFFB",
"-X c #FFFEFB",
";X c #FDFEF9",
":X c #FAFAFF",
">X c #FDFBFF",
",X c #FFFBFF",
"<X c #FEFAFD",
"1X c #FBFFFD",
"2X c #F9FDFF",
"3X c #F9FFFF",
"4X c #FBFFFF",
"5X c #FBFDFD",
"6X c gray99",
"7X c #FDFDFD",
"8X c #FFFDFD",
"9X c #FCFFFD",
"0X c #FFFFFD",
"qX c #FEFEFC",
"wX c #FCFCFF",
"eX c #FFFDFF",
"rX c #FFFDFF",
"tX c #FCFFFF",
"yX c #FDFFFF",
"uX c #FEFEFE",
"iX c #FFFEFF",
"pX c #FEFFFF",
"aX c white",
"sX c #FEFEFF",
"dX c #FDFEFD",
/* pixels */
"aXaXaXaXaXaXaXaXaXaXaXaXaXaXaXaXaXaXaXaXaXaXaXaXaXaXaXaXaXaXaXaXaXaXaXaXaXaXaXaXaXaXaX6XaXaXaXaXaXaXaXaX6XaXaXaXaXaXaXaXaXaXaXaXaXaXaXaXaXaX",
"aXaXaXaXaXaXaXaXaXaXaXaXaXaXaXaXaXaXaXaXaXaXaXaXaXaXaXaXaXaXaXaXaXaXaXaXaXaXaXaXaX6XaXaXaX6XaXaXaXaXaXaXaXaXaXaXaXaXaXaXaXaXaXaXaXaXaXaXaXaX",
"aXaXaXaXaXaXaXaXaXaXaXaXaXaXaXaXaXaXaXaXaXaXaXaXaXaXaXaXaXaXaXaXaXaXaXaXaXaXaXaXaXaXaXaX6XaXaX6XaXaX6XaXaXaXaXaXaXaXaXaXaXaXaXaXaXaXaXaXaXaX",
"aXaXaXaXaXaXaXaXaXaXaXaXaXaXaXaXaXaXaXaXaXaXaXaXaXaXaXaXaXaXaXaXaXaXaXaXaXaXaXaXaXaXaXaXaXaXaXaXaXaXaXaXaXaXaXaXaXaXaXaXaXaXaXaXaXaXaXaXaXaX",
"aXaXaXaXaXaXaXaXaXaXaXaXaXaXaXaXaXaXaXaXaXaXaXaXaXaXaXaXaXaXaXaXaXaXaXaXaXaXaXaX6X6XaX6XaX}.6XaXaXaXaXaXaXaXaX6XaXaXaXaXaXaXaXaXaXaXaXaXaXaX",
"aXaXaXaXaXaXaXaXaXaXaXaXaXaXaXaXaXaXaXaXaXaXaXaXaXaXaXaXaXaXaXaXaXaXaXaXaXaXaXaXaXaXaXaXaXaXaXaXaXaX6XaXaX6XaXaXaXaXaXaXaXaXaXaXaXaXaXaXaXaX",
"aXaXaXaXaXaXaXaXaXaXaXaXaXaXaXaXaXaXaXaXaX6XaXaXaXaXaXaXaXaXaXaXaXaXaXaXaXaXaXaXaX6XaXaX6XaXaXaXaXaXaXaXaXaXaX}.aXaXaXaXaXaXaXaXaXaX6X6XaXaX",
"aX6X6XaXaXaXaXaXaXaXaXaXaXaXaXaXaXaXaX6X}.Y.}.aXaXaXaXaX6X}.}.aXaXaXaXaXaXaXaXaXf.Q 6XaXaXe.Y.6XJ.aXaX6XaXaX}.r.6X}.6X6X6XaXaXaXaX}.}.}.aXaX",
"aXaXaXY.aX6XaXaXaXaXaXaXaXaXaXaXaXaXaXaXaXaXaXaXaX6XaXaXaX6X}.aXaXaX6XaXaX6X6XI.g.W Q R R I.aXaXY.6X6XaX6XaXaX}.r.}.6XaX6X}.6X6XaXaX}.}.Y.aX",
"aXaXaX}.aXaXaXaXaXaXaXaXaX6X6XaXaXaXaXaXaXaXaXaX6X6XaXaXaXaX6X6XaX}.aXaX6X6XJ.}.}.}.Y.r.R aXaXaXaXJ.aX}.aXaX6X6X}.g.}.aXaX6XaX}.6X6XY.}.Y.}.",
"aXaX6XaX6XaX6XaXaXaXaXaX6X}.}.aXaXaXaXaXaXaXaXaXaXaXaXaXaXaXaX6XaXaXaX6XaXaXI.aX6X}.aXs.i.*XaXaXaX6Xg.aXJ.J.}.Y.aXaXJ.Y.aX6XaXaXaXaXaXaX6X6X",
"aXaX6XaX6XaX6XaXaXaXaX6X6X6X6XaXaXaXaXaXaXaXaXaXaX6X6XaXaXaX6XaX}.aX6X6XaXaX6X6XaX6X}.J.E.aX}.aXY.s.}.}.aX6X6XaX}.aX6XaXY.aX6XaXaXaXaXaXaXaX",
"aXaXaXaXaXaXaXaXaXaXaXY.6X6XaXaXaXaXaXaXaXaXaXaX6X}.6XaXaXaX6XaX6XaXaXaXaXaX6X6X6XaX}.Y.P.6XJ.}.}.aX}.aX6XaXaXaX}.6XaXaXI.aXaXaXaXaXaX6XaXaX",
"aXaXaXaXaX6XaXaXaXaXaXJ.aXaXaXaXaXaXaXaXaXaXaXaXaXaXaXaXaXaXaXaXaXaX}.aXaX}.aXaX5XaXaXY.6X6X6XaXI.aXaXaXaXaX6XoX}.aX}.6XaX}.aXaXaXaXaXaXaX6X",
"aX6XaXaX6X6XaXaXaXaX}.J.aXaXaXaXaXaXaXaXaXaXaXaXaXaXaX6X<XaXaXaXaXaXJ.}.6XY.aX6XaXaX6X6XaXaXaXaX6XaXaX}.aXaXaXaX}.6XaXaXaXaX6X}.Y.Y.}.6XaXaX",
"aXaXaXaX}.6XaXaXaXaX}.J.6XaXaXaXaXaXaXaXaXaX<X6X*X}.5XaXaXaX6XaX6XaXaX}.6X*X}.>X6XaXaX*X6XaXaX6XaXaX<XaXaXaXaX X!.aX6XaXaX6XaX2XaXaXaXaXaXaX",
"aX6XaX6XaXaXaX6X6XaXaXaXaXaXaXaXaX2XaX5XoXaX*X*X*X<XaXaXaXaXaX2X2XOX6X*X*X!.<XaX>XaXaX*X6X.X X6XaXaX*X*X*X*X*X X*X*X<XaXaXaX2XaXaX6XaXaXaX6X",
"aX}.6XaXaXaXaX6XaXaXaXaXaXaXaXaXP.2XaXaXaX*X*X.X*X>XaXaXaX5XaX6X[.U.}.m..X*X}.>XaXaXaXaX6X2X2X2XaXaX*X.X.X*X*X*X*X.XaXaX6XaXaXOX6XaXaX6XaXaX",
"6XaXaXaX}.6XaXaXaXaXaXaXaXaXaXaXaX>XY.*X*X.X.X*XaXaX2XaXaXaXaX<XJ.aXaX2XY.6X6X X6X6X2XaX>XaX>X>XaXaXaXaXaXaXaXaX*X*XaXaX<XaX6XaXaXaXaXY.aX}.",
"J.}.aX6X}.}.aXaXaXaXaXaXaXaXaX5Xs.D.aX*X.X*X*XaX XXXXX}.aX<X<X|.aXaXY.p.>X*X.X^.^..XaXaXaX>X>X>X>XaXaXaXaX2X2X2XaXaXaXaX X|.J.aXaX6XaXf.}.}.",
"aXJ.}.6X}.J.6X6XaXaXaXaXaXaXaX6X}.J.*Xi.^.*X2XaX2XXXaX|.*X*X<XaX>XaXJ.*X.XB./.Q./..X.XaXaX>X X*XaXaX2XOXXXOX2XaXaX}.6XaX<X*Xh.i.}.f.g.Y.}.aX",
"6Xf.J.J.aX6XaXaXaXaXaXaXaXaXaX6Xt.E g.^.g.2XOXaX>XY.aX~.~.*X}.}.aX!.T.>.N.z.1./ <.Z.Q.W..X*X*X*X*X*XaXOXOXOX2X2X5X6X<XK.m.Y.}.*X6X}.}.aXaXaX",
"aXaX}.J.aX}.}.}.6XaX6XaXaXaXaX6X*X*X*XH.2X).{.>X].F..X.X.XaX{.H.U.L.W.z.{ y + 3 i e y 8.S./.>X>X.X.XaX2XOXOX2X5X}.}.Y.J.*XaX*X*XaX6X6XaX6Xr.",
"aX6XaX}.}.I.Y.6X6X6X6XaXaXaXaX6X}.6XE.2XXX! d.P.j.y.R.*X*X2X{.a.t.W.S.1.w 3 6 % $ ; 4 e w } W./.Q.Q.*XOXXX2XaXaXoX}.aX6X}.G.}.aXaXaX}.6X6Xs.",
"}.aXaX}.aXI.Y.}.aXaX6XaXaX6XaXaXOX[.U.aXaXT }..XE R.|.*XY.f. X X/.Q.n.( e 4 % * $ * , ; 4 4 @ r 7.Z..XaX}.aX}.aX>X'.*XaX2X2XaXaXaXaXaX6X}.}.",
"}.Y.aX}.aXaXaX}.Y.6XaXaX6XaX6XXX}.aXaXP.aXr.j.R L.}.<X<X*X*XM.4.<.3.s p 3 2 9 $ * * $ $ = = = - t ~ /.|..X*X.XaX<X'.6X2X2XaXaXaXaXaXaX6X6X6X",
"aX}.6X}.6X}.Y.}.Y.6X}.}.}.6XaXY.}.aXXXaX|.R.i.m.aXOX2X6X/.A.Z.u p 8 1 6 2 9 % & $ > , ; ; ; = - a u Q..X.X.X*XaX>X>XaX6X2X2XaX<XaXaXaXaXaXaX",
"}.aX6XaXaXaXaXaXaX}.6X}. XaX}.}.|.aXaXI.|.aX XaXOX2X|..XQ.0.y a %   9 $ % * $ > = = - - 4 4 0 m H O.A..X.X.X*X<XoX>X*X X2X2XaXaXaXaXaXaXaXaX",
"J.I.aXaXaX6XaX6XaXaX}.}.}.I.|. X*X*X|.aX<XaXXXaXaX.X/.S.{ s 1 % % , & * , . < = : - 7 S ' H S Y H o.N.*X*X6X*X>X].>X*X6X2X2XoXaXaXaXaXaXaXaX",
"s.I.aXe.6XaX}.aXaX6X6XY.Y.}.}.|. X*XaXaXaXaXaXaX.X/.S.^ t 1 = = % , ; z 0 < d l U F F Y H B c F F o.S.|.6XOX XaXoX>X*X*X2X}.}.|.aXaXaXaXaXaX",
"r.r.}.Q W 6XaX6X6XaXaXaXaXaXaXY.aXaXaXOX2XOXaX.XA.c.y + q ; = $ ; - f z k C M $.F F F F C n n F F ] C.E.OXOXaXaX'.>X*X6X2X6X<X*XaXaXaXaXaXaX",
"6X}.}.}.r.J.s.aXaXaXaX6X6XaXaXaX'.aX2X2XOX2X/.S.3.y @ 4 X ; l C F F M j C F Y F Y Y U U F C F H #.| u.Y.XXOXaXJ.'.aXaX6X2XaX*X*XaXaXaXaXaXaX",
"}.}.g.W g.Y.6XaXaXaXaXaXaXaXaXaX<XaX2XOX2X*XZ.( t i M C U F F F U U U F Y F Y F F Y F C U C Y G %.5.V.s.`.2XXX}.}.}.5XaXaXaX*X.XaXaXaXaXaXaX",
"aXaXs.J.6X6XaXaXaXaXaXaXaXaXaXaXaXaXOX2XaX.X} _ ' F C C V I Y Y U F C Y B # o 5 F F F U Y D D %.w.Z.T.R.F.aXaX*X*X6XaXaX5X2X*X.XaXaXaXaXaXaX",
"aXaXf.}.6XaXaXaXaXaXaX6XaXaXaXaXaXY.*X.X*XQ...&.H F U U U Y D x o F Y F o - - 5 F F F H ` -.] w.Q..Xj.P.I.aX6X*X*X.XaX5XXX}.|..XaXaXaXaXaXaX",
"aXJ.aXY.Y.}.aXaXaXaXaXaX6X6XaXaXaXY.}.m.~.S.9.) ` H H F F F F x x F Z C 5 h h k C Y S v b ` o.w.S./..XK.aX6X*X*X*X*XaXaX5X5X2X6XaXaXaXaXaXaX",
"aXr.6XaXaX}.}.6XaXaXaXaXaX6X>XaX6X XL.}.<X*XA.Z.;.[ F n k C ' J F U F Y n g n U F F o O 7 H ' *.=.5.S./.f.5X6X*X*X*XaXaXaXaX2X6XaXaXaXaXaXaX",
"}.aX6XR aX}.aXaXaXaXaXaXaXaX<X XY.Y.J.}.f.K.,.l.| ` A h f Z H H Y Y D V F U U C U C o 7 A [ [ _ =.5.S./.Y.aXaX*X*X*XaXaX>XaXaX6XaXaXaXaXaXaX",
"[.aXJ.I.J.Y.6XaXaXaX6XaXaXaX6XXXaX_.Y.R.R./.9.| @.F B k z N L C C F U Y U C U U F Y ` *.X.X.2.q.C./..XaX6X6XL..X.X.XaXaXaXaXaX2XaXaXaXaXaXaX",
"}.aXg.}.}.aX6XaXaXaXaXaXaXaX6X6XXXaXY.Y..XS. .%.I L L C C L N j c F F Y G ' #.` %.) ;.7.v.Z.S.Q..XaX>XaXaX XE.!.!.~.*XaXaXaXaXaXaXaXaXaXaXaX",
"}.6XI.}.aX6XaX6XaXaXaXaXaXaXaXaX>X5XaX.X(.b.:.#.F U C K U U A # v G [ o.O.O.7.q.Z.S.Q.Q././..X.X.X*X*X*XaXaX}._.5XaX5XaXaXaXaXaXaXaX}.Y.}.aX",
"6XaX6XaXaX6XaXaXaXaXaXaXaXaXaXaXaX5X2X.X(.x.] D F Y I I @.] o.o.X.;.7.q.n.S.Q./..X/.*X*X6X6XOX6X.X.X*XaXaXaX5XXX_.XXXXaXaXaXaX6XaXaXaX6X6X6X",
"aXaX6X6XaXaXaXaXaXaXaXaXaXaXaXaXaX}.OX XL.k.%.Y F Y P +.5.1.0.c.Q.Q././..X.X.X.XaX!.aXaX<XaX>XaX.X.XaXaXaXaXaX6X}..X|.*X6XaX*X*X*XaXaXaXaX6X",
"aX6X6X}.aXaX6XaXaXaXaXaXaXaXaXaXaX6X2X2X}.B.2.] ] X.7.v.S.Q././.~.6X2X2XaX2XaXaX2XoXaXaX>XaX>XaXaXaXaXaXaXaX2X*X*X*X*X*X6X<X*X*XaX6XaXaXaXaX",
"aX6XaXaX6XaX6XaXaXaXaXaXaXaXaXaXaXaX X6X'.>XW.S.Q./.W./..X.X.X.X*X6X2X2X2X2X2X2XXXaX>X6XaXaX*XaX>X>XaXaX6X|.XXXX>X>XaXaXaX6X X XaXaXaXaX6XaX",
"aX}.6XaXaXaXaXaXaXaXaXaXaXaXaXaXaXaX*XaXoXaX<X<X|.>XaXaXaXaXaX<X*X*X2X2XaXaXaXaXd.aXaXaXaX6X*XaXaXaXaXaX6X|. XOXaX>XaX>XaXaX5X2X6X6XaXaX6XaX",
"aXI.Y.6XaXaXaXaXaXaXaXaXaXaXaXaXaX*X XI.XXXXaXaXaXaX2X2X6X6XaXaXaXaXaXaXaX*X6X*Xs.|.*XaXaX5XaXaXaXaX6X*X*X*X*XaXaXaXaX>XaXaXaXaX}.}.6XaXaXaX",
"}.I.I.6X6X}.6XaXaXaXaXaXaXaXaXaX*X*X.XI.aX`.XXXX6X X X2X6X6XaXaX>XaXaXaXaX*X.X.X.X*X*X.X2XaXaXaX*X.X.X*X*X*X*X*X*X XaXaXaXaX6XaXaX}.}.aXaXaX",
"aX}.}.}.}.}.}.6XaXaXaXaXaXaXaXaXaX X}.}.aXY.5XaXaX6X XaXaXaXaXaXaXaXaXaXaXaX6XaXaXaXaXaXaXaXaXaXaXaXaXaXaXaX*X*XaXf.aXaX6XaXaXaX6XaXaXaXaXaX",
"I.aXaXaXaX}.aX6XaXaXaXaXaXaXaXaX6XaX6X6XaX6XaX6XaX6X}.aXaXaXaXaXaXaXaX6XaXaXaXaXaXaXaXaXaXaXaXaXaXaXaXaXaXaX6X6X}.r.Y.}.aXaXaXaXI.aXaXaX6XaX",
"aX}.|.}.aXaXaXaXaXaXaXaXaXaXaXaXaXaXaXaXaXI.Y.aX2X6X6XaXaXaXaXaXaXaX*X X6XaX6XaXaXaXaXaXaXaXaXaXaXaXaXaXaXaX6X6XaXf.J.f.Y.Y.6X6XaXaX}.}.}.aX",
"aXaXJ.aX}.}.6XaXaXaXaXaXaXaXaXaXaX}.aX6XaXg.J.6XaXaXaXaXaXaXaXaXaXaXaX6XaXaX6XaXaXaXaXaXaXaXaXaXaXaXaXaXaXaXaXaXaX}.}.J.Y.Y.}.}.6XaXaXaX6XaX",
"aX6Xr.Y.f.aXaX6XaXaXaXaXaXaXaXaX6X6XaXI.}.Y.}.}.6X6XaXaXaXaX<XaXaXaXaXaXaXaX}.6XaXaXaXaXaXaXaXaXaXaXaXaXaXaXaXaXaXaXaX}.}.6XaX}.6X6XaX6XaXaX",
"aXJ.aXaXaX6XaXaXaXaXaXaXaXaXaXaX6XaXaX}.I.aXaX}.6X6X6XaXaXaXaXaXaXaXaXaXaXaX6XaXaXaXaXaXaXaXaXaXaXaXaXaXaXaXaXaXaXaXaX6X6X6X}.}.aX}.}.Y.aX6X",
"aXf.6X6XaXf.aX}.aXaXaXaXaXaXaXaXaX6XaXaXY.6X6XaXaXaXaXaXaXaXaXaXaXaXaX>XaXaXaXaXaXaXaXaXaXaXaXaXaXaXaXaXaXaXaXaXaXaXaXaX}.6XY.I.Y.}.aXaXaX}.",
"aXf.aXaXI.}.6XaX6XaXaXaXaXaXaXaXaXY.6XaX}.aXaXaXaXaXaXaXaXaXaXaXaXaXaXaXaXaXaXaX6XaXaXaXaXaXaXaXaXaXaXaXaXaX6X}.aXaXaX}.J.aX6XaX}.aXaXaXaXaX",
"aXr.aXaX6Xr.aXs.g.J.aXaXaX6XaXaXaXaXaXaXr.}.aXaXaXaX6XaXaXaXaXaXaXaXaXaXaXaXaXaXaXaXaXaXaXaXaXaXaXaXaXaXaX6XaX6XI.I.J.g.I.aX6X}.6XaXaX6XaXaX",
"aXf.I.}.aXaXJ.}.J.r.}.6X6XaXaXaX}.aXaXI.aXaXI.aXaX}.6XaXaX6XaXaXaX6XaXaXaX}.aXaXaXaXaXaXaXaXaXaXaXaXaXaXJ.r.6X6XaX6Xs.}.aXaXaXaXY.aXaXaXaX6X",
"aXaXJ.aX6XaXY.}.}.6XaXaXaXaXaXaXaXaX6XaXaXaXY.}.Y.6XaXaXaXaXaXaXaXaXaXaXaX}.aXaX6XaXaXaXaXaXaXaXaXaX6XaXJ.aXaXaXaXaX}.6XaXY.}.}.}.6X}.aX6XJ.",
"}.aXf.aX6XaXaXr.J.aX}.6XaX6XaXaXI.g.}.aXaX}.aXs.I.aXaX6XaXaXaXaXaXaX}.aXaX6X}.aX}.aXaXaXaXaXaXaX6XaX6XJ.J.6X6XaXaXaXaXf.}.Y.aXaXaX}.6XaXaXg.",
"aXaX6X}.aXaX6Xs.aXaXaXaXaXaX}.6XaX|.J.Q J.J.aX}.aXaXaXaXaXaXaXaXaXaXI.aXaXaX}.}.}.6XaXaXaXaXaXaXaXaXr.6X6XaXaXY.aXaXf.J.aX}.}.aXaXY.aX6XaXI.",
"aXaXaX}.aXaX6X6XI.6X6XaXaXaX6XaXI.}.J.T 6XaXaXaXJ.}.aXaXaXaXaXaXaXaX6XaXaX6XaX6X6X6XaXaXaXaXaXaX}.Y.J.aXaX6XaXs.aXW }.aX6XaXaXaXaXY.aX}.aX6X",
"aXaX6XaXaX}.I.g.J.aXaXaXaX6XaXaXaX}.6XQ aX6XaXaXs.aXaX6XaXaX6XaXaXaXaXaX6XY.6XaXaXaXaXaXaXaXaXaXaXaXaXaX}.aX6XJ.aXaXaXaXaXJ.6XaX6XJ.}.6X6XY.",
"aXaXaXaX6XaX6XaXaX6XaXaX6XaXaXaXaXaXaXaXaXaXaXaXaXaXaXaXaXaXaXaXaXaXaXaXaXaXaXaXaXaXaXaXaXaXaXaXaXaXaXaXaX6XaXaXaXaXaX6XaXaXaXaXaXaXaXaX6XaX",
"aXaXaXaXaXaXaXaXaXaXaXaXaXaXaXaXaXaXaXaXaXaXaXaXaXaXaXaXaXaXaXaXaXaXaXaXaXaXaXaXaXaXaXaXaXaXaXaXaXaXaXaXaXaXaXaXaXaXaXaXaXaXaXaXaXaXaXaXaXaX",
"aXaXaXaXaXaXaXaXaXaXaXaXaXaXaXaXaXaXaXaXaXaXaXaXaXaXaXaXaXaXaXaXaXaXaXaXaXaXaXaXaXaXaXaXaXaXaXaXaXaXaXaXaXaXaXaXaXaXaXaXaXaXaXaXaXaXaXaXaXaX",
"aXaXaXaXaXaXaXaXaXaXaXaXaXaXaXaXaXaXaXaXaXaXaXaXaXaXaXaXaXaXaXaXaXaXaXaXaXaXaXaXaXaXaXaXaXaXaXaXaXaXaXaXaXaXaXaXaXaXaXaXaXaXaXaXaXaXaXaXaXaX",
"aXaXaXaXaXaXaXaXaXaXaXaXaXaXaXaXaXaXaXaXaXaXaXaXaXaXaXaXaXaXaXaXaXaXaXaXaXaXaXaXaXaXaXaXaXaXaXaXaXaXaXaXaXaXaXaXaXaXaXaXaXaXaXaXaXaXaXaXaXaX",
"aXaXaXaXaXaXaXaXaXaXaXaXaXaXaXaXaXaXaXaXaXaXaXaXaXaXaXaXaXaXaXaXaXaXaXaXaXaXaXaXaXaXaXaXaXaXaXaXaXaXaXaXaXaXaXaXaXaXaXaXaXaXaXaXaXaXaXaXaXaX",
"aXaXaXaXaXaXaXaXaXaXaXaXaXaXaXaXaXaXaXaXaXaXaXaXaXaXaXaXaXaXaXaXaXaXaXaXaXaXaXaXaXaXaXaXaXaXaXaXaXaXaXaXaXaXaXaXaXaXaXaXaXaXaXaXaXaXaXaXaXaX"
};
