/* XPM */
static char *_a5a076503114b73deccdc8b5954abe9NUoB7SRgYd2hFV7l[] = {
/* columns rows colors chars-per-pixel */
"70 70 230 2 ",
"   c #0B0000",
".  c #140500",
"X  c #20130A",
"o  c #3B2A20",
"O  c #5D3E37",
"+  c #47382E",
"@  c #544539",
"#  c #5F5C59",
"$  c #594841",
"%  c #674D44",
"&  c #67564B",
"*  c #785649",
"=  c #695B57",
"-  c #785A56",
";  c #784D44",
":  c #6D6359",
">  c #73635B",
",  c #7C685A",
"<  c #7D5F61",
"1  c #796C64",
"2  c #776966",
"3  c #7D736A",
"4  c #7A726A",
"5  c #6A6665",
"6  c #81564D",
"7  c #856F5D",
"8  c #896E5D",
"9  c #846959",
"0  c #84705C",
"q  c #8A725E",
"w  c #90665A",
"e  c #836C63",
"r  c #896C68",
"t  c #847263",
"y  c #8C7463",
"u  c #8D7965",
"i  c #84756B",
"p  c #8A736B",
"a  c #8D7B6C",
"s  c #867A6F",
"d  c #937564",
"f  c #927A64",
"g  c #937C6B",
"h  c #997E6C",
"j  c #92746D",
"k  c #837574",
"l  c #847A74",
"z  c #8C7D72",
"x  c #877778",
"c  c #917E71",
"v  c #927B7C",
"b  c #9C7E7C",
"n  c #997873",
"m  c #91626C",
"M  c #A57476",
"N  c #94816C",
"B  c #9B826E",
"V  c #8B827A",
"C  c #8F8276",
"Z  c #958373",
"A  c #9C8574",
"S  c #9E8976",
"D  c #95857A",
"F  c #9A8679",
"G  c #9D8A7A",
"H  c #968A72",
"J  c #A18673",
"K  c #A28975",
"L  c #A18779",
"P  c #A28B7A",
"I  c #A88D7A",
"U  c #A4907F",
"Y  c #AA917D",
"T  c #868382",
"R  c #9C8384",
"E  c #9B8C83",
"W  c #9A8988",
"Q  c #9C9389",
"!  c #979089",
"~  c #979594",
"^  c #AA8C88",
"/  c #A49383",
"(  c #A99583",
")  c #A4958B",
"_  c #AB998B",
"`  c #B29F8F",
"'  c #A99A94",
"]  c #B19C93",
"[  c #B79597",
"{  c #AF8D92",
"}  c #ADA29A",
"|  c #AFA194",
" . c #B4A495",
".. c #B5AA9E",
"X. c #BBAA9C",
"o. c #B7A698",
"O. c #B2A18F",
"+. c #9D9EA2",
"@. c #ACACAB",
"#. c #ABA6A4",
"$. c #B4ABA4",
"%. c #BBACA3",
"&. c #BDAEAF",
"*. c #B4A7A5",
"=. c #BBB1A6",
"-. c #BDB3AA",
";. c #BFB8AE",
":. c #B5B5B5",
">. c #BCB5B3",
",. c #BCBCBC",
"<. c #B3B8B4",
"1. c #C79A9B",
"2. c #D09798",
"3. c #C5928E",
"4. c #C1AC9E",
"5. c #D39FA6",
"6. c #C7A7A8",
"7. c #D5A7A1",
"8. c #C2B2A5",
"9. c #C3B5AB",
"0. c #C4B9AE",
"q. c #CBB6AB",
"w. c #C2BEBC",
"e. c #CABAB3",
"r. c #D6B8B8",
"t. c #D4B1AE",
"y. c #E8A4A8",
"u. c #E6BBB3",
"i. c #FDBEBC",
"p. c #FEB3B9",
"a. c #EFAFAE",
"s. c #C3C1BE",
"d. c #CDC2BD",
"f. c #D4C4BD",
"g. c #D9C4BD",
"h. c #E6C6BD",
"j. c #F4C5BC",
"k. c #FEC5BE",
"l. c #BFBFC1",
"z. c #D0BFC3",
"x. c #F0BDC1",
"c. c #BEC4C0",
"v. c #C5C4C3",
"b. c #CAC6C3",
"n. c #CBC9C4",
"m. c #C6C6C8",
"M. c #CBC7C8",
"N. c #C6CACC",
"B. c #CBCBCB",
"V. c #D4C5C4",
"C. c #DBC5C4",
"Z. c #D2CCCC",
"A. c #DBCECB",
"S. c #D8CAC7",
"D. c #CDD1CE",
"F. c #D3D2CE",
"G. c #DAD3CC",
"H. c #CECED1",
"J. c #D4CED1",
"K. c #D9CFD0",
"L. c #CED2D2",
"P. c #D4D4D4",
"I. c #DBD5D4",
"U. c #D4DAD6",
"Y. c #DCDAD5",
"T. c #D6D7D9",
"R. c #D5D9DA",
"E. c #DCDCDC",
"W. c #D9D7DA",
"Q. c #E5CAC8",
"!. c #FFC4C2",
"~. c #E8D1CE",
"^. c #E4DBD4",
"/. c #E3DCDB",
"(. c #E5D7D6",
"). c #F3DFDE",
"_. c #DCE1DD",
"`. c #E2E0DD",
"'. c #EBE3DD",
"]. c #FCECDF",
"[. c #DDDEE1",
"{. c #E2DFE0",
"}. c #DEE2E2",
"|. c #E4E4E4",
" X c #EAE5E4",
".X c #ECE9E6",
"XX c #E5E5E9",
"oX c #EAE7E9",
"OX c #E6E9EB",
"+X c #ECEBEC",
"@X c #E7E9E7",
"#X c #F4EBE3",
"$X c #F1EDEB",
"%X c #F9E7E5",
"&X c #F3F1ED",
"*X c #FDF3EC",
"=X c #FFFAEF",
"-X c #FAF0E7",
";X c #ECEEF0",
":X c #F2EFF1",
">X c #FFEFF2",
",X c #EEF2F3",
"<X c #F4F4F4",
"1X c #FDF5F4",
"2X c #F5F9F6",
"3X c #FCFAF6",
"4X c #F5F6F9",
"5X c #FBF6F9",
"6X c #F5FAFB",
"7X c gray98",
"8X c #FBFBFB",
"9X c #F9F9F9",
"0X c #FEFAFA",
"qX c #FFFFFB",
"wX c #FEFDFA",
"eX c #FAFAFD",
"rX c #FEFAFD",
"tX c #FAFDFE",
"yX c gray99",
"uX c #FDFDFD",
"iX c #FFFFFD",
"pX c #FFFEFC",
"aX c #FCFFFF",
"sX c #FEFEFE",
"dX c #FFFEFF",
"fX c #FEFFFF",
"gX c white",
"hX c #FEFEFF",
"jX c #FEFDFE",
"kX c #FEFDFD",
/* pixels */
"@X@X@X@X@X@X@X@X@X@X@X@X@X@X@X@X@X@X@X|.|.@X@X@X@X@X|.@XP.@X@X@X@X|.@X@X@X@X@X@X@X,.+X|.+X|.v.:.E.P.OX|.+X@X@X|.@X,.|.B.I.@X@X|.@X@X@X@X@XI.",
"uXuXuXuXuXuXuXuXuXuXuXuXuXuXuXuXuXuXuXuXuXuXuXuXuX7XuX<XuX+XuX7XuX7XuXuXuXuX7XuXv.I.<X<X<X<X<XuXuX+XuXuX<X<XuXuX<X<X<X|.@XuX<X7XuXuXuXuXuX7X",
"uXuXuXuXuXuXuXuXuXuXuXuXuXuXuXuXuXuXuXuXuXuXuXuXuX7XuX7XuX7XuXuXuXuXuXuXuXuX<X<X|.P.,.@.#.#.+XuXuX7X<X7XuXuXuXuXuX7X#.+X<X7XuXuX@X<X+X7X7XuX",
"uXuXuXuXuXuXuXuXuX7X<X<X7XuXuXuXuXuXuXuXuXuX7X7X7XuX7XuX7XuX<XuX7XuXuXuXuX7X@X<X7X+XuX@X:.#.uXuXuXuX<X@XuXuXuXuX7X<XuXB.:.uXuXuXuXuX7X<X<X<X",
"uXuXuXuXuXuXuXuXuXuXuXuXuXuXuXuXuXuXuXuXuXuXuXuXuXuXuXuXuXuXuXuX<XuXuXuXuXuX<X7XuX7X7X<X,.@XuX7X7XuXuX7X7XuX<XE.<XB.7XuX<X@X<X7XuXuXuX7XuXuX",
"uXuXuXuXuXuXuX7X<X7XuXuXuXuXuXuXuXuXuXuXuXuXuXuX7XuXuX7XuXuXuXuX7XuXuXuXuXuX<XuXuXuX<X+Xv.uX7XuXuXuX7XE.v.|.<XuXuXuX7XuX7X<XuX<XuXuXuX<XuXuX",
"uXuX8XuXuXuXuX<X+X<XuXuXuXuXuXuXuXuXuXuXuXuXuXuXuXuXuXuX7XuXuX7XuXuXuXuXuXuX<X7XuXuX<X<X@X<X7XuXuX@X<X+X<XuX7X7XuXuX<X<XuXuXuX+XuXuXuX7XuXuX",
"uX7X7XuXuXuX7X<X<X7XuXuXuXuXuXuXuXuXuXuXuXuXuXuXuX7XuXuXuX7XuXuXuX7XuXuXuX7X7X7X7XuX7X<X@X@X7XE.uXB.uXuXuX<XuXuXuXuXuX<X7XuXuX<X7XuXuXuXuXuX",
"7X<X7XuXuXuXuX7X+XuXuXuXuX7XuX7XuXuXuXuXuXuXuXuXuXuXuXuXuXuXuXuX7X@XuXuXuX+XuXuXuXuXuX7X7XuXuX7XuX7X7X7XuXuXuXuXuXuX7XuXuXuXuXuXuXuXuXuXuXuX",
"uX7X7XuXuXuXuX<XuX7XuXuX7XuX7XuXuXuXuXuXuXuXuXuXuXuXuXuXuXuXuXuX<X+X|.+X<X<XuX7XuXuXuX7XuXuXuX7XuXuXuXuXuXuXuXuXuX7X7XuXuXuXuXuXuX<X+X<X7X7X",
"uXuXuXuXuXuX7XE.uX7XuXuXuXuXuXuXuXuXuXuXuXuXuXuXuXuXuXuXuXuXuXuXuXuXuX|.3X7XuX<X7XuXuXuXuXuXuXuXuXuXuXuXuXuXuXuXuX7X<X7XuXuXuXuXuXuX7X7XuXuX",
"uXuXuXuX7XuXuX<X7XuX7XuXuXuXuXuXuXuXuXuXuXuXuXuXuXuXuXuXuXuXuXuXuXuX7XuXuX<X<XuXuXuXuXuXuXuXuXuXuXuXuXuXuXuXuXuXuX7X<X7XuXuXuXuXuXuXuXuXuXuX",
"7XuXuX7X7XuXuXuXuX7XuXP.uXuXuXuXuXuXuXuXuXuXuX7XuXuXuXuXuXuXuXuXuX<XuX|.uXuX<XuXuXuXuXuXuXuXuXuXuXuXuXuXuXuXuXuXuXuXuXuXuXuXuXuXuXuXuXuXuXuX",
"7XuXuXuXuXuX0X0X<XuX<XE.uX@XuXuXuXuXuXuXuXuXuXuXuXuXuXuXuXuXuX<XE.<X@XuXuXuX<XuXuXuXuXuXuXuXuXuXuXuXuXuXuXuXuXuXuXuXuXuXuXuXuXuXuXuXuXuXuXuX",
"uXuXuXuXuXuXuXuXuXuX~ 7XuXuXuX@X7XuXuXuXuXuXuXuXuXuXuXuXuXuX7X<XuXuXuXE.@X<X<X<XuXuXuXuXuXuXuXuXuXuXuXuXuXuXuXuXuXuXuXuXuXuXuXuXuXuXuXuXuX7X",
"XX<XuXuXuXuXwX0XuX:XT uX<X+XuXuX<XuXuXuXuXuX7XuX7X7X7XuXuXuXwX&XuX<X7XE.uXuXuX<XuXuXuXuXuXuXuXuXuXuXuXuXuX7XuXuXuXuXuXuXuXuXuXuXuX7X<XuXuXuX",
"6X4XuXwXyXwX1X0X5X[ >.7X3X|.@XuX|.uXuXuXuXuXuX7XuXuX3XwXuXwX1XwXuXuX<XuXuXuXuX3XuXuXuXuXuXuXuXuXuXuXuXuXuXuXuXuX7X7XuXuX7XuXuX@X@X|.7XuXuX+X",
"6X;XuXwXyXwX1X1X{ W uXuX<XuX@.uXuXm.yXuXuXyX<X<X7XwXwX3X3XuXwXwXuXuXuX7X<X<X0XwXuXuXuXuXuXuXuXuXuXuXuXuXuX7X7X7X7X7XuX<X<XuXuX7XuXI.P.@X+XE.",
"uXuX9XwXwX3X1X^ W  X5XuX:Xv.@.|.+X<X2XuXtXtXuX4X;XuX<XuX7XuX+XuXtX[.<XP.7X3XuX7XuXuXuXuXuXuXuXuXuXuXuXuXuX7X7X7X7XuXuXuXuX<X|.E.<X7XuXuX@X<X",
"8X8XuX1XwX1X2 r.#.uXuX5X0XuXuX7X+X+XE.uXtXyXtXXX+X4XuXtXtX,X;XE.<XE.tXT.uX7XuXuXuXuXuXuXuXuXuXuXuXuXuXuXuXuXuXuXuX7X<X<X<X7X@XuX7XuXuXuX<XuX",
"8X:X5X1X0Xv t.x wXuXuX8X8X:X7XuX7X7X<X|.<XuX}.B.,XuXeXuXuXyX[.,X4XtXuXtX6XuXuXuXuXuXuXuXuXuXuXuXuXuXuXuXuX7X7XuXuXuXuX7X7XuX@X7X7X@X@X9XuXuX",
":X+X1X0X6.r R 0XuX3XuXuXuX9X9X8XuXuX7X@.:.<XP.B.,.T.4XuXyX}.[.XXuXuXtXuXyXuXuXtXuXuXuXuXuXuXuXuXuXuXuXuXuX7X7XuX<XuX7X<X+XuX7XuXuXuXuXuXuXuX",
"uX@X1X>Xb 6./.3X1XuXuXeXuX4X8X+XuX<XuXE.uXwX,.0XB.uXuX<X+X<X<XuXtXuXuXuXuXuXuXuXuXyXuXuXuXuX0XuXuXuXuXuXuXuXuXuX7XuXuX7X@XuXuXuX7X7XuXuXuX7X",
"uXuX5X%Xm [ 3XyXwX1XuX6X4XyXtX8X9XuX3XI.`.#./.1XwXwX3XwXwX XG. XwXuXuXuXtXuXtXuXyXyXuXuXuXuXwXuXuXuXuXuXuXuXuXuXuXuX7XuX+X<XuXuXuXuXuXuXuXuX",
"tXyX X%X5.6.#XyX.XuXyXyX6X<XuXuXuX|.Z.Y.$.1X*X^.V 1 2 3 1 1 %.=XwX0XuXuX9XuXuXyXyXuXuX7XuXuXuXuXuXuXuXuX<XuX<XuXuXuXuXuXuX7XuXuXuXuXuXuXuXuX",
";XuX0X1Xn { wX<X XuXuX2XOXyXuXuX0XwXb.wX*XQ 3 E E G G F F G F D i 1XwXwXuXuXuXuXuX6XuXuX7XuX7XuXuXuXuX7X<XuXuX7XuXuX7XuX7XuXuXuXuXuXuXuXuXuX",
"uX7XuX0Xv r.).wX+XuXuXuX+X<X<XuX&XwXwX=.1 C G G Z P P A A K P A E z d.3XwX0XuXuX2XuXyXyXuXuXuXuXuXuX7X<X<XuXuX<XuXuX<XuX7XuXuXuXuXuXuXuXuXuX",
"7XuXuX3X&.f.e %X$X+X XuX<X0XuX3XwX#X: s D G F A I K J K J J J K G G D ) 1X3XwXuXuXuXuXyX7X<XuX7XuXuX<XuX7XuXuXuXuXuX7XuXuXuXuXuXuXuXuXuXuXuX",
"uXtXuXwXwX*.Q.r.1X&X0X.X1XwXwXwX%.> z D G A S K A J B J K I K A A A G G V 3X3X3XwXwXuXuXuXuX9XuXuXuX+XuX7XuXuXuXuXuX7XuXuXuXuXuX<X<X7X7XuXuX",
"<XuXuXwXwX*.r.b S.1X0XwX'.wX1Xl i c Z Z A P J J K K I K B Z A K K I A F D $.3XwX3XuXuX<XuXuXuX0X9X7X<X7X+X7XuXuXuXuX<XuX7XuXuXuX<X7XuXuXuXuX",
"+.tXuXwXwXwXv r.x.R 1XwX1X3X(.1 t u A S K J B K J B A K P G G K h K K S a i '.3XwX7XuXuX7XuXuX9X<X<X<X@X|.<XuXuXuX7X@XuX7XuX7XuXuXuXuXuXuXuX",
"XXP.I.wX3X3X3Xr [ z.9.' k W $ p y g B I B J I J J K K A A G G A I B K A G a > #X0XwX3XuXwX1X= &.9X<X0X[.|.OXtXuXuX<X+XuXuXuX7X7XuXuXuXuXuXuX",
"yX4XwXuXyXwXwX0XV.W v V.F g.r y t g A S L K L K K K K K S S S S K A P S S F , > 1X*X&X2X3XA.- 6.>XuX8X4X;XR.+XuXuX3X1X1XwXuXuXuXuXuXuXuXuXuX",
"uX2XuXwXuXuXuX0X0X0X%XR c ( 9 8 u g A G L L K K K K J J L K L S K G G S N y j - O Q.*X3X3X-.j 1.W 1XuX+X;XXXOXuXwXwXwXwX3X7XtXuX7XuXuXuXuXuX",
"uX<XuX7XuXuX8XuXuX1XwX3X3X%Xe y u g A A A S K K A A A A G S G G P A S G Z g * u.7.6.b %X3X%.e j *.0XuX:XXXOX;XuXuXwXuXuXuXuXtX7X<X7XuXuXuXuX",
"7X|.uXuXuXuXuXuXuX0XwXwX*X*Xy y u g A A A A S S S S L K G G G L L P A S u y t.u.y.5.7.p 3Xf.p % 9.#X0XuXW.XXuXuXuXuXwXuXuXuXuX7X7XuXuXuXuXuX",
"8XE.8XuXuX0XuXuX6X7X<X3X3X3X, , u g A A A A A A G G K K K G G L P A S A A q u.!.x.a.2.7.% & % + , ] 3X1X9XH.uX4XuXuXuXuX8XuXuXuXuXuXuXuXuXuX",
"uX|.7XuXuXuXuXyX6XuXuXwX3X=X: t u g B A A A A A G G K K K G G L A P S S u q j.!.p.a.y.2.O a a F A & *X3XwXwX@XuXuXuXuXuXuXuXuXuXuXuXuXuXuXuX",
"tX;X8XuXuXuXuXtXyX6XuX3XwX#X: t y f g h N B A A A A A G S S L L P A S g N 8 7.i.p.p.y.2.% g N P G F c f.3XwXF.uXtXuXuXuXuXuXuX8XuXuXuXuXuXuX",
"@X7XuXuXuXuXuXuXyXuXuX<X*X*X= y t q f f f g Z Z Z A A A G S L L A K I A u 8 w k.i.p.y.3.* 0 A S S F G E ^.3XwXwX+XtXuXuX8X8XuXuXuXuXuXuXuXuX",
";X4XuXuXuXuXuXtXuXuXuXuX1X3X1 t q q q q u g u A N g B P A B I L A P B S g q * j.i.k.M ; y g I A S P F E s #X1X1XE.+XtXtXuXuXuXuXuXuXuXuXuXuX",
"tXuXuXuXuXuXuXuXtX<X8X0X1X*Xi e 7 7 q g Z K / / ( P A u K J A K A P K K f q q u.j.j.6 d 8 B B J U Z G F G C #X XE.7XuX4X;XtXuXuXuXuXuXuXuXuX",
"uXuXuXuXuXuXuXuXuXtX8X0XwXA.i e t N Z G o.X.o.X. .X.( S N B J A G G A A B q 9 , h.u.Y h A A K K A / G P D G z -XwX.X7XuX<XuX0X8XuXuXuXuXuXuX",
"uXuXuXuXuXuXuXyXtXuXuX1X0X> i p c G X.-.%.8.9.8.i 8.4.( A N g A Z A A L K B A 0 d A U Z A P J A G G c / F G G i *X1X&X<XuX<X0XuXuXuXuXuXuXuX",
"uXuXuXuXuXuXuXuXuXyXuXwX^.3 z ) } ..9.=.0.=.l 3 -.=.e.o.G a g N Z A A B h N N B A K g P N A K K @   . F K G G Z 1 3X$XwX<XtXuXtXuXuXuXuXuXuX",
"uXuXuXuXuXuXuXuXuX<XyXuX1Xi ) 1 $.V 4 4 ! s.b.n.! 0.-.9._ A u y u u d h B K N S A B A U U S K S . X ].t S A S G z l -X3XP.@X<XuXuXuXuXuXuXuX",
"uXwXwXuXuXuXuXuXyXyXyXyX.XV ' V.Z.b.,.:.b.B.v.B.b.-.! -.=./ u 0 t d d d d f u B B h L A g P N G @     G K B Y Z Z l $..XI.E.@X@XuXuXuXuXuXuX",
"uXwXwXuXuXuXuXuXuXuX<XG.-.+ o d.b.B.l.B.H.m.B.B.v.b.Z.4 Q X.Z t 7 u d d d u g y g h h Z G N S Z D E D Z K J B S Z z > '.I.I.|.7X7X<X7X7XuXuX",
"uXuXuXuXuXuXuXuXyX@Xv.b.f.q.[ g.n.c.B.B.M.m.B.B.B.v.B.n.;.-.) t y Z P ( P A g g g g A Z S Z G N S g A A B J A A Z a i -.wX3XwXuXuXuXuXuX<XuX",
"uXuXuXuXuXuXuXuX|.v.n.A.e.r.t.h.b.c.v.,.M.B.B.L.N.N.L.D.n.-./ g z ` G 9.X.X._  ._ ` _ O.O. .( / N ( y f B y q g Z a t = 3XwX0X3X4XuXuXuXuX7X",
"uXuXuXuX8XuXuX<XB.s.B.V.r.~.Q.b *.<.m.b.B.B.v.B.N.N.L.F.A.%.] c i 3 -...0.-.0.%.%.%.q.4.q.8.X.8. ./ G G t c G Z c > e.E wX3XuXuXuXuXuXuX7X@X",
"uX7X<X7X8XuXuX|.B.B.B.w.E Q.Q.^ k s.F.b.M.I.J.B.H.L.D.B.G.W ] _ > ^.G.' 4 Q $.-.e.9.8.q.8.8.e.8.0... .| o. .Z ..' l } d.wXuXuXuX7X7XuXuX+XuX",
"3X<X<X9X0XuXuX|.B.v.v.# ) 6.Q.r.k # 5 B.Z.v.J.P.N.T.I.P.A.& - e 1 S.G.Y.Y.Y.G.^.>.> 2 > 2 D W R Q =.$.=.} 9.-.} V l *X<X7XtXuXuXuXuXuXuX+XuX",
"<X3X0XuX0XuXuX4XB.B.B.b.d.%.6.R k Z.b.P.J.I.J.B.H.B.P.I.(.' r.g.k A./.Y.I.Y.`.I.T I.x &.W /.(./.`.n.`.$.d.$.G.'.Y./.9X XE.7X,XeXuXuXuX<XuX7X",
"<XwXuXuX8X8XuXuX|.v.B.v.Z.2 C.C.k B.P.b.b.I.P.P.[.H.E.I.I.Q.C.C.C.2 x b.I.E.I.`.Y.`.~ /.#.Y. XI.:.E.w.E./.s./.I.Y.P.uX<XE.XX,XOX|.uXuX|.uXuX",
"<XuXuXuXuXuXuXuXyX+XB.B.b.w.V.V.J.Z.Z.v.v.F.P.L.L.U.E.Z./.A.D q.R x = K./.Y.E.Y.|.E.E.|.E.E.E.,.|.E.P.E.E.E.E./.E.<X7XuXuX|.uX<XuXuXuXuXuX7X",
"|.0XuXuXuXuXuXuXyXyX,XE.Z.Z.Z.Z.Z.P.B.,.v.P.L.U.U.U.E.I./.#.~.Q.v &././.I.E.E.E.E.E.E.E.E.E.E.E.E.B.E.|.v.|.I.|.3X3XuX7XuXuXB.@X@X<X@XuXuX<X",
"+XuX&XuXuXuXyXuXuXuXyX7X&XE.Z.P.Z.B.B.P.F.B.D.U.R.U.I.E./.Z././.(.S.I./.|.E.P.U.E.E.E.E.E.E.E.E.E.I.E.E.v.|.+XuXuXuX8XuXuXuXE.<XuXuX7X7X7X<X",
"E.uXuX+XuX<XuXyXuXuXuXuXuX<X+X@XE.B.B.I.I.D.R.U.E.U.R.E.I.|.Y.Y./.Y.E.E.E.U.U.}.E.E.E.E.E./.{.|.E.E.`.@X@XuXuXyXuX3XuXuXuXuXuX7XuX<XuX+X<XuX",
"v.uXuX<X<X7XyX<XyXuXuXyXuXuXuXuXuX+X@X|.E.U.E.L.T.P.[.W.E.E.E.E.Y.E._.E.E._._.U.`.`.{./.E.E././. X<X<X7XwXuXuXuXwXuXuX<XwX0XuXuXuX<XuX<X<XuX",
"@XuXuX<XuXuXuXuXuXuX8XuXuX<X<XuXuX<XuX7X3X<X2X4X|.[.XX[.|.E.|._.|._.U.E.}._._.E.E.|. XoX$X<X0XuX0XuXuXuXuX7XuXuX7X<XuXuXuXuXuX3X7X<X<X7X7XuX",
"<X8XuX7X,XuX7XuXuXuXuXuXuX7X6XuXuXXXuXuXuXuXuXuXuXuX8XuXtX4X6X4X4X<X<X6X2X<X7XuXuXuXuXuXuXuXuXuXuXuX7XuXuXuXuXuX6XuX+XuX7XuXI.3XuXuX<XuX<X<X",
"uX+XtXB.T.P.uXuX0XuXuX7XuXuXuXuX8Xv.+X<X7XuXuX0XuX8X8XuXuXuXyXyXuXuXuXuXuXuXuX8XuXuXuXuXuXyXyXyXuXuXuXuX7XyXyXuXuX6XtXE.+XE.{.+X7XuX<X<X7XuX",
"uX@XtX;X@XP.uXuXuXuXuXuXuXuXyXuXuXz.<X0X+XuXuX$XuX8XuXuXuXuXyXyXuXuX8XuX8X<XuXuXuXuXuXuXuXyXyXyXuXuXuXuXyXuX;X}.E.uXyXuX+XtX+XuXuXuXuX<XuXuX",
"uXuXB.7XE.uX7XuXuXuXuXuXuXuXuXuX7X<XuX7XE.uX<X0XuXuXuXuXuXuXuXuXuXuXuXuXuXuX7XuXuXuXuXuXuXuXuXuXuXuXuXuXuX<XE.2XuXuXuXuXuXE.uXuX7XuX<X<X7X7X",
"<XuXE.B.7X7X@XuXuXuXuXuXuXuXuX7X7XuXuXuX<X+X<XuXuXuXuXuXuXuXuXuXuXuXuXuXuX7X<XuX7XuXuXuXuXuXuXuXuXuXuX7XuXI.<X7XuXuXuXuXuXI.@X@X+X7X+X<X+XuX",
"uX7XuXI.7XuXuXuXuXuXuXuXuX+X@X+XuX7XuXuXtXE.<XuXuXuXuXuXuXuXuXuXuXuX7XuXuXuX<X7X7X7XuXuXuXuXuXuXuXuXuXuXU.@X<XuXuX<XuXuXuX7X@X<X@XuXuXuX+X<X",
"7XuXuXE.7XuX<XuX7XuXuX7X7XuXuX<Xv.:.<XuXuX+X<XuXuXuXuXuXuXuXuXuXuXuX<XuXuXuX7X7X7X<XuXuXuXuXuXuXuX7XuX@XI.uX<XuXuX+XuXuX7XP.@X7XuXuXuXuXuX<X",
"uXuXuXuX@XuXuXuXuX7X7X7XuX+X+X+X:.:.<XuXuXuX<XuXuXuXuXuXuXuXuXuXuXuX<XuX7XuX7X7X7X<XuXuXuXuXuXuXuX7XuXE.<XuXuXuX7X[.<X8X@.uXuXuXuX7XuXuX7X7X",
"uXuX<XuX@XuXuXuX7XuXuX<XuXuXuX9X|.+XuX7XuXuX@X<XuXuXuXuXuXuXuXuXuXuXuXuX<X7X7XuXuX<X7XuXuXuXuXuXuXuX<X<XuXuXuXuXuX7XI.@X@XuXuXuX<XuXuXuX|.7X"
};
